<svg id="Layer_1" data-name="Layer 1" xmlns="http://www.w3.org/2000/svg" viewBox="0 0 489 338"><defs><style>.cls-1{fill:#fdfdfd;}.cls-2{fill:#f3f3f3;}.cls-3{fill:#e1c0c0;}.cls-4{fill:#8bb7ae;}.cls-5{fill:#8cb7ae;}.cls-6{fill:#e2c0c0;}.cls-7{fill:#767676;}.cls-8{fill:#e2c1c1;}.cls-9{fill:#757575;}.cls-10{fill:#747474;}.cls-11{fill:#e1c1c1;}.cls-12{fill:#8db7ae;}.cls-13{fill:#7a7a7a;}.cls-14{fill:#e0c4c4;}.cls-15{fill:#c4c1c1;}.cls-16{fill:#d3c8c8;}.cls-17{fill:#cdcdcd;}.cls-18{fill:#f6f6f6;}.cls-19{fill:#d1d1d1;}.cls-20{fill:#e9e9e9;}.cls-21{fill:#818181;}.cls-22{fill:#d6d6d6;}.cls-23{fill:#dadada;}.cls-24{fill:#c7cbca;}.cls-25{fill:#fcfcfc;}.cls-26{fill:#8db8af;}.cls-27{fill:#fcfdfd;}</style></defs><title>Color Reviews icon vector</title><path class="cls-1" d="M391,383H57V45H546V383H412l-4.29-3.21a41.64,41.64,0,0,0,5.14,0c3.73-.48,7.43-1.15,11.15-1.75h7.43l-2.38-2.94,8.9-2.25,5.1-.88,6-2.93,5.27-3.29-1.17-1.92L448,367l-3,.16c-1-.21-2.14-.84-3-.57-3.07,1-6.05,2.28-9.05,3.46h-3l-1.94-1c1.49-3.71,4.92-4.35,8.19-5.7,8.35-3.46,16.46-7.47,24.67-11.26l4.93,1.87L462,360,460,361c-.14.19-.28.37-.43.55l.53-.45L462,360c8.28-2.23,17.14-3.42,22-12l1,0h0c5.65-4.46,11.34-8.89,16.91-13.45.49-.4.25-1.68.35-2.55-.88-.09-2.12-.6-2.58-.2-2.37,2-4.43,4.39-6.82,6.38A56.92,56.92,0,0,1,487,342c0-.34,0-.68,0-1l1-1,1-1a1.84,1.84,0,0,0,.35-.15c.05-.05.05-.17.07-.26L489,339l-1,1-1,1-1.95,1-.05,0-.95.95,0,.07-1.3.58,1.3.22c-4,1.71-8,3.69-12.17,5-1.66.52-3.8-.52-5.73-.84a12.19,12.19,0,0,0,2.42-2.45A42.79,42.79,0,0,1,491,325.93l5.33,4.5,5.27-7.88-7.77-.49c1.19-3.24,1.88-6.79,3.67-9.67,4.23-6.82,10-12.87,13.21-20.08,2.71-6,7.32-8.57,12.26-11.45l3.66-2.28c.32,1.27.58,2.29.55,2.15.86-5,1.86-10.85,2.87-16.7l3,5,.2,4,1.73.12q1.34-9.89,2.68-19.76l-1.44-.2c-.1.94-.19,1.88-.28,2.82h-3.81l0-3L531,247c-.07-4.69,0-9.36-5.58-11.52-.5-.19-.42-3.71-.14-3.78,3.16-.77,1.43-3.1,1.73-4.74,2.89.23,5.21-.26,5-3.95l2.22-.15-.21-.74-2,.89c-5.24,0-2.29-3.29-1.75-5.06.87-2.84,1.27-4.85-2.08-4.7l-3.31,9.68-6.28-1.71,1.09,1c-1.5,2.51-2.42,6.35-4.59,7.26-5.43,2.3-8.16,5.66-8.09,11.44-3.09-.43-4.91.83-5.52,4-.34,1.73-1,3.39-1.47,5.09-2.89,1.43-6,2.66-3.27,6.9.43.68-.32,2.17-.64,3.26-.54,1.83-1.22,3.62-1.76,5.46-1.26,4.33-2,8.87-3.81,13-2.45,5.65-5.65,11-8.53,16.45l-1.05.91,0,0L479,297h0l-1,1,0,0-8,7.95c-7.23,4-14.06,9.36-21.79,11.72-12.83,3.9-24.56,11.42-38.4,12-7.12.29-14.54,4.73-21.19-1.57-.29-.28-1-.15-1.45-.21l4-3.82.92-.95c4.58-1.85,9.19-3.61,13.66-5.68.53-.25.28-2.2.39-3.36L423,304v10.56l1.29.21q4.39-8.36,8.8-16.72c5-6.38,9.43-13.32,15.11-19,5.18-5.18,7.25-14.08,16.48-14.83.45,0,.76-1,1.24-1.46,6-5.15,8.69-12.55,12.85-18.93,2.28-3.49,5.78-6,7.32-10.1,1.05-2.82,3.81-5,5.23-7.7,3.15-6.12,5.93-12.43,8.91-18.65a23.74,23.74,0,0,1,1.9-2.75l2.27,3.76c.64-4.23,6.25-6.84,1.22-11.05-.29-.24.24-1.55.48-2.33A51.15,51.15,0,0,1,513,181.83c4.48-6.43,6.31-13.34,8.46-20.37.44-1.44.36-4.38-.19-4.56-4.42-1.51-1.55-3.37-1-4.74,1.19.67,2.18,1.61,3.15,1.6.57,0,1.42-1.48,1.61-2.4a25.65,25.65,0,0,0,.84-6.87c-1.08-14.71-1.31-29.64-7.05-43.52-2.08-5-5.43-9.66-8.71-14.09-1.55-2.1-4.42-3.18-6.46-5-2.58-2.27-4.77-5-7.47-7.05-.59-.44-3.13.76-3.94,1.83-.63.84,0,2.65.2,5.12-5.07-4.45-9.24-8.41-13.75-11.94-2.61-2-5.76-3.38-8.67-5-6.74-.65-13-5.88-21.08-1.79l20.92,5.13a49.53,49.53,0,0,0,3.35,4.24c6.52,6.68,15.55,11.66,15.23,22.9a1.34,1.34,0,0,0,.43.88c6.36,6.3,6.14,14.78,7.25,22.69,1.51,10.72,6,21.49-1.09,32.21-2.12,3.22-2.06,7.88-3.08,11.86-3,11.8-6.49,23.35-15.55,32.31-2.18,2.16-3.65,5.05-5.45,7.6l-5.85,2c.29-1.11,1.05-2.35.79-3.32-2.81-10.52.73-21.12-.65-31.73s-3.68-21-8.18-30.83c-1.34-7.07-3.13-14.1-3.84-21.24-.37-3.73-1-6.68-4.18-8.75l-2-2c-5.71-11.18-20-26.16-25.55-26.89,3.61,3.84,7.4,7.63,10.92,11.68,4.31,5,8.39,10.13,12.57,15.21l-3.48,2.27c2.77,6.43,5.66,13.13,8.54,19.84q2,6,3.91,11.94c.72,9.06,1.5,18.12,2.15,27.19.44,6.27.18,12.64,1.14,18.82,1.89,12.23.82,24.16-2.2,36L443,219l1.22-2.67,1.07-.67L444,215a5.37,5.37,0,0,0-1-.19l-1-.88L427,207c-10.68-5.3-21.25-10.85-32.08-15.82-6.11-2.8-12.64-4.7-19-6.92-4.26-1.48-8.65-2.6-12.84-4.25-2.24-.89-4.18-2.54-6.25-3.85-.09-1.25-.19-2.51-.3-4l4.54-.41,0-.51-4.95-.71c2.3-.83,4.07-1.06,5.3-2a35.4,35.4,0,0,0,4.36-4.69l-6-1a12.25,12.25,0,0,1-1.23-.4v-6.79l-12,9.09c-1.7-1.23-3.49-3.56-4.89-3.35-4.3.66-8.45,2.28-12.65,3.53l-31,.62c1,2.06,1.47,3.15,2,4.39L296,172c-14.65,2.81-29.29,5.75-44,8.37-8.69,1.55-17.5,2.42-26.2,3.94-3.11.54-6.52,1.51-8.93,3.4-2.82,2.21-4.95,2.78-7.39.28-1.55,1.16-2.7,2.52-4.14,3-7.87,2.67-13.49,8.46-19.48,13.73-2.59,2.27-5.38,4.5-7.31,7.29-2.86,4.11-5,8.71-7.51,13.1L170,228c0,.28-.06.56-.08.85-2.18,3.89-7.12,6.19-6.39,11.77.36,2.77-.46,5.77.27,8.39.62,2.24,2.69,4.07,4.12,6.09,3.05,11.51,8.65,21.84,13.7,32.42l1.5-.54-.75-9.53c4.58,7.34,9.37,15.22,14.38,23a31.08,31.08,0,0,0,6,7.2c2.09,1.69,5,2.43,8.66,4.13-.65-2.38-.66-3.1-1-3.59-6.7-9.35-11.56-19.61-15.62-30.35-3.66-9.69-6.66-19.65-4.44-29.87,2.69-12.41,10.68-21.15,22.53-26,3.26-1.33,6.8-2,10.21-2.95-1.64,3.17-3.62,6.22-4.86,9.54-6,16-9.57,32.54-8.15,49.76.86,10.46,2,20.89,7.67,30.23A125.55,125.55,0,0,1,226.35,325c1.22,2.89,3.52,3.16,5.62,3.85.87.29,2.36-1.76,3.48-1.66,6.52.57,13.08,1.14,19.51,2.32,16.58,3,33.12,6.29,49.64,9.63a121.35,121.35,0,0,1,13.63,3.69c4.58,1.5,9,3.61,13.59,5,1.22.37,4.27-1.21,4.23-1.38-1.22-5.36,3.51-3.88,6.22-5.12l-2-3.25c1.46-1.78,2.8-3.39,4.14-5l5.5,0a5.5,5.5,0,0,0,1.71.86c11.69,1.14,22.68-1.75,33.45-5.9-.83,4.83-1.65,9.66-2.64,15.39,7,2,14.29,3.74,22,1.88,2-.48,4-.93,6-1.3,4.68-.84,10.74-.1,13.7-2.8,4.07-3.69,8.42-3.94,12.88-5.3,3.47-1.05,8.22.08,9.81-5,.16-.51,2-.48,3.1-.69l.94,2L436,348.92c0,.71,0,1.42,0,2.14l0,0c0,1,0,2,0,3a1.35,1.35,0,0,0,0,.69l-2.1,1.21c-2.51,1.81-5.34,3.31-7.44,5.51-3.08,3.23-5.63,7-8.4,10.49-2.71,1.44-5.36,3-8.15,4.28-1.83.83-3.95,1-5.79,1.86-2.53,1.13-4.91,2.58-7.36,3.89l-.72-1.28,2.36-1.66L385,376l-9.41-.07c-3.79-.05-7.74.54-11.33-.35-4.41-1.09-8.51-3.41-12.75-5.21l-.69,1.12a35.63,35.63,0,0,0,3.87,2.78c7.66,4.13,15.66,6.22,24.34,3.69l3,1,3,0ZM190.08,344.94l1,.87c7,3.39,14,6.94,22.52,3.94a12.72,12.72,0,0,0-1.44-1.9c-6.1-5.32-12.3-10.53-18.32-15.94-2.71-2.44-5.09-5.26-7.62-7.91,4.39,1.69,8.7,3.72,13.46,3.46l.57-2L193,323l1.43-3.5-1.21-.73L191,322l-2.77-1L184,318h0l-1-1h0l-1-1,0,0-1-1h0l-1-1h0l-2-2v0l-1-1,0,0-1-1,0,0,0-1c1.73-4.21-1-4.76-4.09-4.94l-.95-1q-5-5-10-10.06l-2,0h0c.69-5-.57-9.15-5-12l0-1.17,1.23-.54-1.23-.17-.08-.09c-.92-2.21-1.7-4.48-2.78-6.61-3.27-6.5-6.65-12.94-10-19.4-1-4.49-1.36-9.28-5.85-12.08l-1-6.33,6.83,6.42c1.93-4.35,3.23-8.21,1.46-12.75A86.74,86.74,0,0,1,140,219c1.25-1.16.75-4.65,4.07-3,.09.46.18.92,0,.12.49.69.22.3-.06-.09l-2.22-14.19c-3.57-17-1.47-34.16-1.46-51.32,0-17.67,6.78-33.77,8.38-50.94.59-6.28,3-12.38,4.58-18.57l3.79-5L151.92,77c1.51-3.63,3-7.28,4.53-10.89,2.56-5.92,5.16-11.83,7.74-17.74L163,47.62c-1.89,1.78-3.88,3.46-5.65,5.35-3.15,3.37-6.17,6.87-9.24,10.31-8.63,2.84-17.39,5.34-25.85,8.62-7.2,2.8-14.06,6.47-21.05,9.8-.56.26-1.26.88-1.33,1.41-.55,4-3.71,4.37-6.69,5-8.54,1.76-14.88,7.55-21.7,12.27-2.6,1.8-4.53,5.33-5.47,8.46-.46,1.53,2,4,3.3,6.21-3.56,1.84-8.91.76-10.44,6.17,4.46-3.47,7.51-3.09,9.15,2.78l.92-1.58,5.18,3.49-1.67,9.27-2.71-.79c-1,4.38-2.11,8.48-2.72,12.66-.82,5.54-1.06,11.16-1.82,16.71-1.62,11.7-2.28,23.43-.18,35.09,1.2,6.65,4,13.07,4.72,19.74a131.82,131.82,0,0,0,10.12,39.1c10.07,23,21.5,45.19,36.21,65.61,2.28,3.16,4.18,6.67,6.84,9.46,2.51,2.63,6.13,4.18,8.67,6.78,7.13,7.34,14,14.93,20.87,22.52a98.19,98.19,0,0,1,6.38,8.12c2,2.76,3.83,5.65,5.6,8.26l14.4-8.81a7,7,0,0,0-.91-2.69c-4.74-5.48-9.37-11.11-14.52-16.19-3.71-3.67-8.18-6.56-12.31-9.8l-4-5.09L139,326c-1.83-3.51-3.38-7.29-7.95-8.13l-1-1.87L125,309.93c-6.83-9-14.5-17.46-17-29L110,280c3.77,5.19,7.09,10.78,11.38,15.49,11.51,12.63,23.41,24.91,35.24,37.26a6.54,6.54,0,0,0,3.18,1.29c1.66.39,3.6.14,5,.91,5.61,3,11,6.33,16.61,9.41.64.35,1.75-.18,2.65-.3l3.93,0a3.12,3.12,0,0,0,.81.13l1.24.74Zm339.87-55-1,2-.39.45.44-.4c.35-.66.7-1.32,1-2l.39-.5Zm-99-220-1.29,4.65,2.61-.23c-.46-1.66-.82-3-1.19-4.29l1.49-2.74-1.42-.48C431.08,67.88,431,68.91,430.94,69.94ZM508,321l8.22-6.49-1.77-1.78L508,321l-.39.45ZM211,335l1.37,1.27c1.12-4,3.68-1.81,5.92-1.52,1.07.13,2.23-.44,3.36-.68l0-1.9L209,330.8c-2.09-2.29-4.54-2.87-8.34-2.45Zm235-261.87-11.45.74L434,75.52c1.65.83,3.4,2.49,4.93,2.31,2.43-.29,4.72-1.8,7.07-2.8l5.3,2.55L452.1,76ZM254,160.05c-5.95,2.26-12.82,2.25-18,6.34l.57,1.68L248,164.79l24.38-5.21-.27-.92ZM459,94h0c.82-5.14-4.65-9.14-12.51-8.79.27,2,.09,4.27.91,6,1.14,2.45,3,4.55,4.59,6.8l.44.21L452,98c.37-1,.74-2,1.1-3,4,3.84,8,7.69,12.09,11.67.17-3,.31-5.37.38-6.52-1.34-1.56-2-2.54-2.9-3.34A22.23,22.23,0,0,0,460.1,95ZM385.83,149c-.58-1.36-1.17-2.73-1.76-4.09h0c-1.78-.72-3.57-1.43-5.35-2.16s-4.61-1.23-4.74-2.15c-.64-4.54-3-2.07-4.93-1.61l-13.36,1-1-2.57c-1.8.91-3.2,2.18-4.66,2.25-5,.26-10,.1-15.49.1,2.15,2.66,7.09-1.39,6.86,3.9,3,0,6.19.68,8.9-.15,4.58-1.39,7.89.16,11.35,2.7,2.15,1.57,4.58,2.68,6.73-.41.43-.61,1.75-.6,2.66-.87l0,2v1l8,2.13,3,.64,2.94.1Zm4.29-46.81c3.45,0,6.91.1,10.36,0a22.68,22.68,0,0,0,4.23-.92l-4.88-7.12L394.61,93l.47,1.29A21.86,21.86,0,0,1,390.92,97c-1.15.44-2.6.06-3.92,0-.87-.58-1.73-1.63-2.6-1.64a50.59,50.59,0,0,0-6.59.68L341,91V82.27l12,8.25,2.59-11.14-9.23-3c1.49-4.22-1.46-9.66-6-10.17-5-.57-10.38-1.3-15.05,0-3.81,1-3.89-.66-3.84-2.65.11-4.09-2.51-3.89-5-3.41A137.28,137.28,0,0,0,302,63.57c-6.15,1.88-12,5-18.27,6.15-11.63,2.06-21.78,7.53-32.06,12.6-11.7,5.77-22.77,12.82-34.35,18.85-6.28,3.27-9,9.9-14.5,13.83-2.5,1.79-4.16,4.75-6.21,7.16-1.14,1.34-2.3,2.65-3.45,4l1,1.64,17.51-10.32,1.43,1.75a48.78,48.78,0,0,1-4.55,3.62,78.37,78.37,0,0,1-10.26,5.92c-3.64,1.57-3.31,7.62-8.58,7.13-.44,0-1.07,1.17-1.49,1.87-1.15,1.93-2.34,3.85-3.3,5.87-1.51,3.18-2.84,6.44-4.25,9.67l1.36.81c.95-.52,1.95-1,2.84-1.56,15.71-10.57,29.62-23.85,48.12-30.23,7.38-2.54,14-7.36,20.95-11.14.91,1.14,2.68,2.38,2.57,3.41-.48,4.5-.07,4.33,4.08,4.24,5.24-.12,11.82-.48,15.44,2.34,4.16,3.24,7.44,3.62,11.87,2.88,5-.84,10.1-1.46,15.16-2.19,2.85-.4,5.68-.87,8.53-1.21,1.14-.14,2.32.05,3.47,0,9.5-.84,19-1.82,28.5-2.53,4.54-.35,9.12-.17,13.68-.35a9.91,9.91,0,0,0,2.68-.92,26.28,26.28,0,0,1,5.22-1.7A69.93,69.93,0,0,1,373,115c.7.07,1.54.43,2.07.16C381.15,112.1,385.53,107,390.12,102.22Zm-161,54.87a44.86,44.86,0,0,0,6.28-1.15c6.27-2.06,12.46-4.33,18.69-6.5,2.84-1,5.7-1.92,8.55-2.88l-.28-1.4a35.74,35.74,0,0,0-4.88.59c-8.54,2.16-17,4.84-25.6,6.45-3.8.71-3.77,2-2.89,4.73l-1.34.5a2.61,2.61,0,0,0,.29.36C228.3,157.58,228.68,157.33,229.07,157.09Zm244.59,25.15c5.65-.06,5.66-.05,7.83-5.27a27.93,27.93,0,0,0,1.95-5.09c1.15-5.9,2.08-11.84,3.09-17.76l-2.06-.35c-1.08,4.92-1.6,10-3.38,14.7C479.24,173.31,476.18,177.69,473.66,182.24Zm.85-15.85c3.71-9.7,3.58-18.95.3-21-1.82,6.89-3.67,13.93-5.53,21l.64.22,3.15-3.88ZM219.4,172.65a45,45,0,0,1-5.28,3.77c-3.79,2-7.81,3.54-11.54,5.61-1.23.69-1.87,2.43-2.78,3.69l1.19.93L221.84,175Zm184.82-7.78.65-.93-4.52-5.13L388.59,161l0,1.56Zm83.5-29.22V158h1.76C490.12,150.54,490.81,143.08,487.72,135.65Zm-23.27,1.91-1.69.47q2.34,9.83,4.69,19.64l1.73-.4Q466.83,147.41,464.45,137.56ZM228,336.14c13.58,1.21,15.44.83,16.63-2.85Zm297.9-37.26-1.31-.77L523,302l1.07.45Zm7-13-.73-.35c-.29.57-.58,1.14-.88,1.71.27.11.75.35.77.33C532.41,287,532.67,286.47,532.94,285.9ZM429.34,67.34l-.43-.14-.05.59a1.19,1.19,0,0,0,.44-.11C429.37,67.64,429.33,67.46,429.34,67.34Zm32.1,295.32.16-.21-.24,0Z" transform="translate(-57 -45)"/><path class="cls-2" d="M424,378c-3.72.6-7.42,1.27-11.15,1.75a41.64,41.64,0,0,1-5.14,0L412,383H391l-6-4v-3l13.37,3L396,380.72l.72,1.28c2.45-1.31,4.83-2.76,7.36-3.89,1.84-.83,4-1,5.79-1.86,2.79-1.27,5.44-2.84,8.15-4.28l3,1,0,1.13a47.79,47.79,0,0,0-5,1.86c-.53.26-.68,1.29-1,2l3,.05v0l.95-.91L421,377Z" transform="translate(-57 -45)"/><path class="cls-3" d="M223.14,219c-3.41,1-6.95,1.62-10.21,2.95-11.85,4.84-19.84,13.58-22.53,26-2.22,10.22.78,20.18,4.44,29.87,4.06,10.74,8.92,21,15.62,30.35.35.49.36,1.21,1,3.59-3.69-1.7-6.57-2.44-8.66-4.13a31.08,31.08,0,0,1-6-7.2c-5-7.73-9.8-15.61-14.38-23l.75,9.53-1.5.54C176.6,277,171,266.62,168,255.11c-.57-4.12-1.17-8.23-1.71-12.36-.08-.62-.18-1.61.16-1.87,4.17-3.16,3.14-7.8,3.55-12,0-.29.05-.57.08-.85l1-2.91c2.47-4.39,4.65-9,7.51-13.1,1.93-2.79,4.72-5,7.31-7.29,6-5.27,11.61-11.06,19.48-13.73,1.44-.48,2.59-1.84,4.14-3,2.44,2.5,4.57,1.93,7.39-.28,2.41-1.89,5.82-2.86,8.93-3.4,8.7-1.52,17.51-2.39,26.2-3.94,14.69-2.62,29.33-5.56,44-8.37,1,.37,4-.79,1.73,2.19l-4.56,1.39c2.54,3.88,5.43,4.42,8.92,2.43l13.17-2c1,1,2,2.62,3.17,2.86,3.52.69,7.19.58,10.71,1.24,6,1.11,11.92,2.57,17.87,3.89-1.93,3.76-5.84,4.1-9.12,5.79-5.89,3-11.12,7.36-16.56,11.24-.37.25-.2,1.25-.28,1.9a5.18,5.18,0,0,1-.87.11c-.65-.86-1.61-2.55-1.89-2.45-3.6,1.35-7.09,3-10.62,4.51-4.86.76-9.71,1.66-14.59,2.27-5.34.66-10.7,1.07-16.05,1.58-1.78-.65-3.72-2.13-5.3-1.82-6.62,1.32-13.14,3.18-19.7,4.83l-7,0-6.13.05c1-1.49,1.6-3.35,2.9-4.41,6.9-5.62,14-11,21.18-16.69l-1-1.83a50.16,50.16,0,0,0-4.81,2.63c-7,5-15.94,7.42-20.16,16.05C234.12,213.53,228.65,216.38,223.14,219Zm94.94-34.19c-.11-.8-.23-1.59-.34-2.38-8.32,0-16.88-1.25-24.87.36-7.64,1.54-14.68,6-22,9.25l.92,2.49C286.14,186.12,301.75,183.77,318.08,184.8ZM179.7,260.05l-1.23.15,1.83,14.12,1.79-.25Z" transform="translate(-57 -45)"/><path class="cls-4" d="M470,64.82c2.91,1.66,6.06,3,8.67,5,4.51,3.53,8.68,7.49,13.75,11.94-.16-2.47-.83-4.28-.2-5.12.81-1.07,3.35-2.27,3.94-1.83,2.7,2.06,4.89,4.78,7.47,7.05,2,1.8,4.91,2.88,6.46,5,3.28,4.43,6.63,9,8.71,14.09,5.74,13.88,6,28.81,7.05,43.52a25.65,25.65,0,0,1-.84,6.87c-.19.92-1,2.39-1.61,2.4-1,0-2-.93-3.15-1.6-.55,1.37-3.42,3.23,1,4.74.55.18.63,3.12.19,4.56-2.15,7-4,13.94-8.46,20.37A51.15,51.15,0,0,0,506.08,195c-.24.78-.77,2.09-.48,2.33,5,4.21-.58,6.82-1.22,11.05l-2.27-3.76a23.74,23.74,0,0,0-1.9,2.75c-3,6.22-5.76,12.53-8.91,18.65-1.42,2.75-4.18,4.88-5.23,7.7-1.54,4.15-5,6.61-7.32,10.1-4.16,6.38-6.87,13.78-12.85,18.93-.48.42-.79,1.43-1.24,1.46-9.23.75-11.3,9.65-16.48,14.83-5.68,5.68-10.12,12.62-15.11,19L431,298c-1.06-5.47,4.08-7.91,5.92-12,3-6.69,6.25-13.28,9.64-19.78A88.88,88.88,0,0,1,452,258c3.51.76,4.44-1.82,5.69-4.22,2.34-4.48,4.7-9,7.34-13.27,2.1-3.44.58-9.32-3-10.52l0,0c.64-3,1.27-6,1.91-9,2.08-5.13,4.19-10.25,6.24-15.39a23.81,23.81,0,0,0,.73-2.79c1.8-2.55,3.27-5.44,5.45-7.6,9.06-9,12.53-20.51,15.55-32.31,1-4,1-8.64,3.08-11.86,7.06-10.72,2.6-21.49,1.09-32.21-1.11-7.91-.89-16.39-7.25-22.69a1.34,1.34,0,0,1-.43-.88c.32-11.24-8.71-16.22-15.23-22.9a48.17,48.17,0,0,1-3.35-4.25C469.87,67,469.92,65.93,470,64.82Z" transform="translate(-57 -45)"/><path class="cls-5" d="M186.21,324c2.53,2.65,4.91,5.47,7.62,7.91,6,5.41,12.22,10.62,18.32,15.94a12.72,12.72,0,0,1,1.44,1.9c-8.54,3-15.51-.55-22.52-3.94l-1-.87,0,0-1.24-.74A3.12,3.12,0,0,1,188,344l-5-4.17-.88,1,1.93,3.2c-.9.12-2,.65-2.65.3-5.57-3.08-11-6.41-16.61-9.41-1.42-.77-3.36-.52-5-.91a6.54,6.54,0,0,1-3.18-1.29c-11.83-12.35-23.73-24.63-35.24-37.26-4.29-4.71-7.61-10.3-11.38-15.49-5.68-8.89-11.22-17.87-17.1-26.61-2.71-4-5.21-7.9-4.51-13.6l5.52,1.32c-.17-8.37-5.53-14.34-8.92-21.14q2.26-10.05,4.56-20.14l4.58-.76,4,.94.4,13.41,6.42-4.5,4,2.22v6.32l4.15.44a3.43,3.43,0,0,1,.2.84l.85,1.08c2,5,4,10.11,6.07,15.11,1.37,3.27,3,6.45,4.46,9.67.27.42.55.83.83,1.25L142,271.11c2.19,8.11,5.78,15.2,13.86,19L159,293h0l2,3.06,6,6,1.92,3ZM174,333l-.41-.24.43.22,3.68,5,1.44-1.5Z" transform="translate(-57 -45)"/><path class="cls-6" d="M254,111.16c-7,3.78-13.57,8.6-20.95,11.14-18.5,6.38-32.41,19.66-48.12,30.23-.89.6-1.89,1-2.84,1.56l-1.36-.81c1.41-3.23,2.74-6.49,4.25-9.67,1-2,2.15-3.94,3.3-5.87.42-.7,1.05-1.91,1.49-1.87,5.27.49,4.94-5.56,8.58-7.13a78.37,78.37,0,0,0,10.26-5.92,48.78,48.78,0,0,0,4.55-3.62l-1.43-1.75-17.51,10.32-1-1.64c1.15-1.32,2.31-2.63,3.45-4,2.05-2.41,3.71-5.37,6.21-7.16,5.52-3.93,8.22-10.56,14.5-13.83,11.58-6,22.65-13.08,34.35-18.85,10.28-5.07,20.43-10.54,32.06-12.6,6.25-1.11,12.12-4.27,18.27-6.15a137.28,137.28,0,0,1,14.45-3.43c2.47-.48,5.09-.68,5,3.41,0,2,0,3.7,3.84,2.65,4.67-1.31,10.06-.58,15.05,0,4.52.51,7.47,6,6,10.17l9.23,3L353,90.52l-12-8.25V91c-3,.1-6.06-.14-9,.37-5.87,1-7.29.35-9.14-6.53-5.94,1.17-12,2.43-18,3.51-2.47.44-5,.38-7.54.71-2.1.27-5.43.12-6.05,1.3-2.3,4.35-5.34,5.29-9.44,4.41-1.9,1.45-4.15,3.11-6.2,2.89-5-.55-9.51,1-14.07,2.27-1.46.41-2.76,1.94-3.79,3.24-1.63,2.06-3,4.35-4.66,6.88Z" transform="translate(-57 -45)"/><path class="cls-7" d="M140,219a86.74,86.74,0,0,0,2.54,9.33c1.77,4.54.47,8.4-1.46,12.75l-6.83-6.42c.47,3,.73,4.68,1,6.33l-1.33.3a25,25,0,0,1-2.38-4.27c-4.89-14.76-10.42-29.36-14.23-44.4-2.36-9.33-2.35-19.31-2.9-29-.39-6.84-1.21-14,5.57-19,1-.74.9-2.94,1-3.21l-5-5.35.12-1.91a10.31,10.31,0,0,0,1.43-2.38c2.61-9.57,5.15-19.16,7.72-28.75C128,94,137.84,88.4,137,78c4.87-4.24,9.58-8.29,11.13-14.76,3.07-3.44,6.09-6.94,9.24-10.31,1.77-1.89,3.76-3.57,5.65-5.35l1.19.76c-2.58,5.91-5.18,11.82-7.74,17.74-1.55,3.61-3,7.26-4.53,10.89l-7,11.92L143,92l1.18.52.88-3.5L153.26,81c-1.58,6.19-4,12.29-4.58,18.57-1.6,17.17-8.36,33.27-8.38,50.94,0,17.16-2.11,34.28,1.46,51.32l-5.14,6.33,2,.54c-.09,2.6-.33,5.21-.2,7.81C138.43,217.36,139.41,218.17,140,219Zm2-123,.34-1.28c-.1.44-.2.88-.29,1.33l-.37,1.21Z" transform="translate(-57 -45)"/><path class="cls-8" d="M421,373l-3-1c2.77-3.52,5.32-7.26,8.4-10.49,2.1-2.2,4.93-3.7,7.44-5.51l2.1-1.21a1.35,1.35,0,0,1,0-.69L451,344l.23-.42L451,344c-1.83.74-3.7,1.4-5.48,2.25-3.22,1.53-6.39,3.18-9.59,4.79l0,0c0-.72,0-1.43,0-2.14l14.92-16.73-.94-2c3.11-1.27,6.67-2,9.22-3.95s3.76-5.55,6.07-7.93c3.11-3.2,6.85-5.78,10-8.94.84-.85.52-2.86.74-4.33q1-3.54,2-7.08l0,0,1-1h0l2-1.05,0,0L482,295c2.88-5.47,6.08-10.8,8.53-16.45,1.78-4.1,2.55-8.64,3.81-13,.54-1.84,1.22-3.63,1.76-5.46.32-1.09,1.07-2.58.64-3.26-2.72-4.24.38-5.47,3.27-6.9l3.83,5.4c.82-1.86,1.94-4.37,3.45-7.77-.06-1.43-.17-4-.29-6.68-.07-5.78,2.66-9.14,8.09-11.44,2.17-.91,3.09-4.75,4.59-7.26l-1.09-1,6.28,1.71,2.13,4c-.3,1.64,1.43,4-1.73,4.74-.28.07-.36,3.59.14,3.78,5.56,2.16,5.51,6.83,5.58,11.52,0,2,0,3.94.08,5.91-1.51,5.37-3,10.74-4.55,16.1-1.14,4-2.36,7.91-3.55,11.86-4.94,2.88-9.55,5.41-12.26,11.45-3.25,7.21-9,13.26-13.21,20.08-1.79,2.88-2.48,6.43-3.67,9.67L491,325.93a42.79,42.79,0,0,0-22.43,19.65,12.19,12.19,0,0,1-2.42,2.45l-5.22,4c-8.21,3.79-16.32,7.8-24.67,11.26-3.27,1.35-6.7,2-8.19,5.7L427,370l-3,1.17Zm86-101-1,1h-1c-1-.4-2.83-1.35-3-1.12-4.15,5.61-8.12,11.35-12.13,17.07l1.72,1.44c5.85-3.11,8.81-9.07,12.43-14.38l1-1c.34-.67.67-1.34,1-2l1-1,.42-.23-.19-.19Z" transform="translate(-57 -45)"/><path class="cls-9" d="M223.14,219c5.51-2.61,11-5.46,13.78-11.19,4.22-8.63,13.15-11.08,20.16-16.05a50.16,50.16,0,0,1,4.81-2.63l1,1.83c-7.21,5.64-14.28,11.07-21.18,16.69-1.3,1.06-1.95,2.92-2.9,4.41-.46.81-.87,1.65-1.4,2.42-3.82,5.6-7.66,11.19-11.75,17.14,1.93.95,2.59,1.11,3,1.52A10.74,10.74,0,0,1,230,235c-6.67,14.67-10.47,29.74-6.25,45.9.36.91.72,1.82,1.09,2.73L227.29,295c2,4.43,3.62,9.05,6,13.23,3.31,5.74,7.56,7.63,12.67,6.55L264.93,317c1.94,1.57,3.7,3.91,5.9,4.44,1.51.36,4.94,4.36,5.87-1l13.3,1,2-.25,2.39.08,2.71.89,6.91.74c4,1,7.9,2.09,11.86,3.07,9.51,2.36,19,4.68,28.55,7-1.34,1.62-2.68,3.23-4.14,5l2,3.25c-2.71,1.24-7.44-.24-6.22,5.12,0,.17-3,1.75-4.23,1.38-4.61-1.39-9-3.5-13.59-5a121.35,121.35,0,0,0-13.63-3.69c-16.52-3.34-33.06-6.61-49.64-9.63-6.43-1.18-13-1.75-19.51-2.32-1.12-.1-2.61,1.95-3.48,1.66-2.1-.69-4.4-1-5.62-3.85a125.55,125.55,0,0,0-8.55-16.43c-5.67-9.34-6.81-19.77-7.67-30.23-1.42-17.22,2.17-33.72,8.15-49.76C219.52,225.21,221.5,222.16,223.14,219Z" transform="translate(-57 -45)"/><path class="cls-10" d="M254,111.16l-.91-1.11c1.69-2.53,3-4.82,4.66-6.88,1-1.3,2.33-2.83,3.79-3.24,4.56-1.28,9.07-2.82,14.07-2.27,2.05.22,4.3-1.44,6.2-2.89,4.1.88,7.14-.06,9.44-4.41.62-1.18,3.95-1,6.05-1.3,2.51-.33,5.07-.27,7.54-.71,6.07-1.08,12.1-2.34,18-3.51,1.85,6.88,3.27,7.55,9.14,6.53,2.93-.51,6-.27,9-.37l36.8,5.08a13.62,13.62,0,0,1,0,2.29c-4.64.73-9.29,1.59-14,1.87-3.86.22-7.88-1.24-11.49,1.37,10.48,2.87,21,2.86,31.65,1.41-2.64,2.45-5,5.51-8,7.17-2.36,1.27-3.19,2.44-3,4.82a69.93,69.93,0,0,0-7.8.07,26.28,26.28,0,0,0-5.22,1.7,9.91,9.91,0,0,1-2.68.92c-4.56.18-9.14,0-13.68.35-9.51.71-19,1.69-28.5,2.53-1.15.1-2.33-.09-3.47,0-2.85.34-5.68.81-8.53,1.21-5.06.73-10.13,1.35-15.16,2.19-4.43.74-7.71.36-11.87-2.88-3.62-2.82-10.2-2.46-15.44-2.34-4.15.09-4.56.26-4.08-4.24C256.68,113.54,254.91,112.3,254,111.16Z" transform="translate(-57 -45)"/><path class="cls-8" d="M139,326l8.14,9.85L143.24,339c1.95,4.44,4.7,4.13,7.86,2,4.13,3.24,8.6,6.13,12.31,9.8,5.15,5.08,9.78,10.71,14.52,16.19a7,7,0,0,1,.91,2.69l-14.4,8.81c-1.77-2.61-3.6-5.5-5.6-8.26a98.19,98.19,0,0,0-6.38-8.12c-6.86-7.59-13.74-15.18-20.87-22.52-2.54-2.6-6.16-4.15-8.67-6.78-2.66-2.79-4.56-6.3-6.84-9.46-14.71-20.42-26.14-42.59-36.21-65.61a131.82,131.82,0,0,1-10.12-39.1c-.73-6.67-3.52-13.09-4.72-19.74-2.1-11.66-1.44-23.39.18-35.09.76-5.55,1-11.17,1.82-16.71.61-4.18,1.76-8.28,2.72-12.66l2.71.79C73,132,73.58,129,74.13,125.9l2.07.43c.24,3.27.85,6.57.61,9.81a51.68,51.68,0,0,1-2.07,10.33c-1,3.58-3.62,7.07-3.53,10.54.27,10.16,1.51,20.29,2.43,30.42.77,8.48,1.61,16.95,2.42,25.42q.47,6.08.94,12.15l-2,2q1.71,9.57,3.4,19.15L80,245.9V242h2l1,2,3,1a93.32,93.32,0,0,0,13.45,29.47v-4l1-.53,7.51,11c2.52,11.51,10.19,20,17,29l5.12,6.07,1,1.87C132.06,322.16,134.15,325.41,139,326Z" transform="translate(-57 -45)"/><path class="cls-11" d="M344.4,333c-9.52-2.34-19-4.66-28.55-7-4-1-7.9-2.05-11.86-3.07-5.42-5.87-10.9-11.68-16.22-17.63a75.17,75.17,0,0,1-6.9-8.91c-.43-.67.71-2.37,1.13-3.6l1,.08,7-2.8,2-2.12,6,.2c1,1,2,1.9,3,2.86.7,1.62,1.39,3.25,2.09,4.88l3,6.11c15.75,11.48,33,18.4,52.85,17l9.17-2.11c12.41-4.85,25.83-7.41,36.7-15.83,8.58-6.64,17.66-12.77,22.48-23.11.28-.59,1.67-.67,2.55-1l1.16,0c3.75.52,7.25-4.13,6-8l2-4,2-2,0,0,6-8c0-.33,0-.65,0-1h0l6-1.21c-.48,2.37-.77,3.78-1.06,5.19a88.88,88.88,0,0,0-5.44,8.2c-3.39,6.5-6.64,13.09-9.64,19.78-1.84,4.08-7,6.52-5.92,12l-8,6-16.92,10c-3.52,2.06-7.07,4.08-10.54,6.23a35.7,35.7,0,0,0-3.51,2.81l-.92.95c-8.68,1.82-17.37,3.61-26,5.49C360,330.61,355,331.86,349.9,333Z" transform="translate(-57 -45)"/><path class="cls-12" d="M76.2,126.33l-2.07-.43L69,122.41,68,124c-1.64-5.87-4.69-6.25-9.15-2.78,1.53-5.41,6.88-4.33,10.44-6.17-1.28-2.26-3.76-4.68-3.3-6.21.94-3.13,2.87-6.66,5.47-8.46,6.82-4.72,13.16-10.51,21.7-12.27,3-.62,6.14-1,6.69-5,.07-.53.77-1.15,1.33-1.41,7-3.33,13.85-7,21.05-9.8,8.46-3.28,17.22-5.78,25.85-8.62C146.56,69.75,141.85,73.8,137,78c.86,10.36-9,16-11.78,24.93-3.55,1.85-7.19,3.53-10.61,5.59-7.47,4.48-14.66,9.31-18.92,17.34A29.75,29.75,0,0,1,93.48,129l-.87-.65V124.5Z" transform="translate(-57 -45)"/><path class="cls-9" d="M476,305c-.22,1.47.1,3.48-.74,4.33-3.15,3.16-6.89,5.74-10,8.94-2.31,2.38-3.54,5.94-6.07,7.93s-6.11,2.68-9.22,3.95c-1.08.21-2.94.18-3.1.69-1.59,5.08-6.34,3.95-9.81,5-4.46,1.36-8.81,1.61-12.88,5.3-3,2.7-9,2-13.7,2.8-2,.37-4,.82-6,1.3-7.72,1.86-15,.15-22-1.88,1-5.73,1.81-10.56,2.64-15.39l2.05-.16c.49.06,1.16-.07,1.45.21,6.65,6.3,14.07,1.86,21.19,1.57,13.84-.58,25.57-8.1,38.4-12,7.73-2.36,14.56-7.71,21.79-11.72Z" transform="translate(-57 -45)"/><path class="cls-13" d="M347,184c-6-1.32-11.88-2.78-17.87-3.89-3.52-.66-7.19-.55-10.71-1.24-1.2-.24-2.12-1.86-3.17-2.86L317,174.2c7,.47,14-.63,21.18,1.58,5.69,1.75,12.34.4,18.57.42,2.07,1.31,4,3,6.25,3.85,4.19,1.65,8.58,2.77,12.84,4.25,6.38,2.22,12.91,4.12,19,6.92,10.83,5,21.4,10.52,32.08,15.82,2.37,2.48,4.89,4.85,7,7.52.73.91.54,2.57.77,3.89-3.52-2.67-6.92-5.52-10.59-8a90.12,90.12,0,0,0-8.67-4.52l0,0c-.26-.55-.62-1.61-.75-1.59-5,1-8.11-3.12-12.25-4.4-13.89-4.31-27.72-8.8-41.64-13C356.32,185.61,351.6,185,347,184Z" transform="translate(-57 -45)"/><path class="cls-11" d="M457,139c4.5,9.81,6.79,20.11,8.18,30.83s-2.16,21.21.65,31.73c.26,1-.5,2.21-.79,3.32-1.13,3.43-2.28,6.85-3.36,10.29-.95,3-1.65,6.16-2.77,9.14s-2.6,5.81-3.93,8.7l-3,3c-.38-.75-.75-1.51-1.12-2.26l1.26-6.93.84-.91L453,226c.67-1,1.34-1.94,2-2.9,3-11.87,4.09-23.8,2.2-36-1-6.18-.7-12.55-1.14-18.82-.65-9.07-1.43-18.13-2.15-27.19Z" transform="translate(-57 -45)"/><path class="cls-14" d="M356.78,176.2c-6.23,0-12.88,1.33-18.57-.42-7.2-2.21-14.14-1.11-21.18-1.58l12-9.28c4.2-1.25,8.35-2.87,12.65-3.53,1.4-.21,3.19,2.12,4.89,3.35l12-9.09v6.79a12.25,12.25,0,0,0,1.23.4l6,1a35.4,35.4,0,0,1-4.36,4.69c-1.23.94-3,1.17-5.3,2l4.95.71,0,.51-4.54.41C356.59,173.69,356.69,175,356.78,176.2ZM342,168l1.37-.37-.33-.61L342,168l-.39.46Z" transform="translate(-57 -45)"/><path class="cls-15" d="M77,225q-.47-6.08-.94-12.14l1.93.07q2.4,10.09,4.79,20.18l1.5-.06a16.74,16.74,0,0,0,.52-4.27c-.4-3-1.14-6-1.75-8.95L85,220c3.39,6.8,8.75,12.77,8.92,21.14l-5.52-1.32c-.7,5.7,1.8,9.57,4.51,13.6,5.88,8.74,11.42,17.72,17.1,26.61l-2.06.94-7.51-11-1,.53v4A93.32,93.32,0,0,1,86,245l-2-9.11-.61.19L83,244l-1-2Q79.5,233.51,77,225Z" transform="translate(-57 -45)"/><path class="cls-16" d="M329,164.92l-12,9.28L315.22,176l-13.17,2c.81-3.86-3.09-2.34-4.36-3.82,2.27-3-.69-1.82-1.73-2.19l4.06-2.06c-.58-1.24-1.08-2.33-2-4.39Zm-26.61,6.35c.28.12.62.4.82.32s.26-.51.38-.79c-.28-.12-.62-.4-.81-.32S302.5,171,302.38,171.27Z" transform="translate(-57 -45)"/><path class="cls-2" d="M371,145c-.91.27-2.23.26-2.66.87-2.15,3.09-4.58,2-6.73.41-3.46-2.54-6.77-4.09-11.35-2.7-2.71.83-5.89.15-8.9.15.23-5.29-4.71-1.24-6.86-3.9,5.48,0,10.5.16,15.49-.1,1.46-.07,2.86-1.34,4.66-2.25l1,2.57L369,139C369.7,141,370.36,143,371,145Z" transform="translate(-57 -45)"/><path class="cls-17" d="M460.92,352.06l5.22-4c1.93.32,4.07,1.36,5.73.84,4.17-1.29,8.13-3.27,12.17-5,0-.27,0-.53,0-.8l0-.07.95-.95,0,0,.75-.06,1.21,1.17q-1,2.42-2,4.83h0l-1,0c-4.85,8.55-13.71,9.74-22,12l0,0,3.82-6.1Z" transform="translate(-57 -45)"/><path class="cls-17" d="M155.85,290.13c-8.08-3.82-11.67-10.91-13.86-19q-.53-5.12-1-10.21c1.65,2.63,3.19,5.35,5,7.88,2.51,3.51,5.24,6.88,7.87,10.31l.08.09v.71c0,.39,0,.78,0,1.17C154.57,284.08,155.21,287.11,155.85,290.13Z" transform="translate(-57 -45)"/><path class="cls-18" d="M384,103c-10.62,1.45-21.17,1.46-31.65-1.41,3.61-2.61,7.63-1.15,11.49-1.37,4.68-.28,9.33-1.14,14-1.87a13.62,13.62,0,0,0,0-2.29,50.59,50.59,0,0,1,6.59-.68c.87,0,1.73,1.06,2.6,1.64h-3.83l2,4.92Z" transform="translate(-57 -45)"/><path class="cls-15" d="M387.11,327.84l-2.05.16c-10.77,4.15-21.76,7-33.45,5.9a5.5,5.5,0,0,1-1.71-.86c5.05-1.18,10.09-2.43,15.16-3.53,8.66-1.88,17.35-3.67,26-5.49Z" transform="translate(-57 -45)"/><path class="cls-19" d="M228.93,156.93c-.87-2.71-.9-4,2.9-4.73,8.64-1.61,17.06-4.29,25.6-6.45a35.74,35.74,0,0,1,4.88-.59l.28,1.4c-2.85,1-5.71,1.89-8.55,2.88-6.23,2.17-12.42,4.44-18.69,6.5a44.86,44.86,0,0,1-6.28,1.15Z" transform="translate(-57 -45)"/><path class="cls-20" d="M186.21,324l-17.34-19,3.36,1,.77.82,1,1.19,0,0,1,1,0,0,1,1,0,0,1,1,0,0,1,1v0l2,2h0l1,1h0l1,1,0,0,1,1h0l1,1h0l4.23,3,2.77,1,2,1,7.24,2.41-.57,2C194.91,327.72,190.6,325.69,186.21,324Z" transform="translate(-57 -45)"/><path class="cls-21" d="M385.19,102l-2-4.92H387c1.32,0,2.77.4,3.92,0a21.86,21.86,0,0,0,4.16-2.75L394.61,93l5.22,1.17,4.88,7.12a22.68,22.68,0,0,1-4.23.92c-3.45.15-6.91,0-10.36,0Z" transform="translate(-57 -45)"/><path class="cls-19" d="M473.66,182.24c2.52-4.55,5.58-8.93,7.43-13.77,1.78-4.65,2.3-9.78,3.38-14.7l2.06.35c-1,5.92-1.94,11.86-3.09,17.76a27.93,27.93,0,0,1-1.95,5.09C479.32,182.19,479.31,182.18,473.66,182.24Z" transform="translate(-57 -45)"/><path class="cls-15" d="M455,233c1.33-2.89,2.82-5.73,3.93-8.7s1.82-6.11,2.77-9.14c1.08-3.44,2.23-6.86,3.36-10.29l5.85-2a23.81,23.81,0,0,1-.73,2.79c-2.05,5.14-4.16,10.26-6.24,15.39Z" transform="translate(-57 -45)"/><path class="cls-15" d="M447,107l2,2c-1.88,3,1.5,4.76,1.73,7,.44,4.31-.42,8.76-.75,13.15-2.88-6.71-5.77-13.41-8.54-19.84l3.48-2.27Z" transform="translate(-57 -45)"/><path class="cls-17" d="M371,145c-.67-2-1.33-4-2-6,1.92-.46,4.29-2.93,4.93,1.61.13.92,3.08,1.46,4.74,2.15s3.57,1.44,5.35,2.16l-1.58,1.26.33.33,1.26-1.58c.59,1.36,1.18,2.73,1.76,4.09l-.86,1.85-2.94-.1L379,149l-1.81-2.76-1,1L379,149v1.14L371,148c0-.33,0-.66,0-1Zm3.35,1.53-.75-.06c.12.09.23.25.35.26S374.25,146.61,374.38,146.53Z" transform="translate(-57 -45)"/><path class="cls-14" d="M450,129.12c.33-4.39,1.19-8.84.75-13.15-.23-2.21-3.61-3.94-1.73-7,3.2,2.07,3.81,5,4.18,8.75.71,7.14,2.5,14.17,3.84,21.24l-3.13,2.07Q451.93,135.09,450,129.12Z" transform="translate(-57 -45)"/><path class="cls-22" d="M474.51,166.39l-1.44-3.65-3.15,3.88-.64-.22c1.86-7,3.71-14.08,5.53-21C478.09,147.44,478.22,156.69,474.51,166.39Z" transform="translate(-57 -45)"/><path class="cls-23" d="M453.13,95.06c-.36,1-.73,2-1.1,3l0,0c-1.56-2.25-3.45-4.35-4.59-6.8-.82-1.76-.64-4-.91-6,7.86-.35,13.33,3.65,12.51,8.79a16.94,16.94,0,0,0-4.16-1C454.29,93,453.71,94.33,453.13,95.06Z" transform="translate(-57 -45)"/><path class="cls-20" d="M385,376v3l-3,0-3-1c-8.68,2.53-16.68.44-24.34-3.69a35.63,35.63,0,0,1-3.87-2.78l.69-1.12c4.24,1.8,8.34,4.12,12.75,5.21,3.59.89,7.54.3,11.33.35Z" transform="translate(-57 -45)"/><path class="cls-16" d="M170,228.86c-.41,4.22.62,8.86-3.55,12-.34.26-.24,1.25-.16,1.87.54,4.13,1.14,8.24,1.71,12.36-1.43-2-3.5-3.85-4.12-6.09-.73-2.62.09-5.62-.27-8.39C162.83,235.05,167.77,232.75,170,228.86Z" transform="translate(-57 -45)"/><path class="cls-22" d="M415,377.93c.32-.68.47-1.71,1-2a47.79,47.79,0,0,1,5-1.86L433,371l12-3.93,3-.16,1,2.05-6,2.93-5.1.88-8.9,2.25L424,376.85,421,377l-2.09.06L418,378v0Z" transform="translate(-57 -45)"/><path class="cls-16" d="M447,107h-2.06c-4.18-5.08-8.26-10.25-12.57-15.21-3.52-4-7.31-7.84-10.92-11.68C427,80.85,441.26,95.83,447,107Z" transform="translate(-57 -45)"/><path class="cls-22" d="M485,348q1-2.42,2-4.84c0-.38,0-.77,0-1.15l0,0a56.92,56.92,0,0,0,5.86-3.85c2.39-2,4.45-4.37,6.82-6.38.46-.4,1.7.11,2.58.2-.1.87.14,2.15-.35,2.55C496.33,339.09,490.64,343.52,485,348Z" transform="translate(-57 -45)"/><path class="cls-19" d="M385.19,102l4.93.26c-4.59,4.81-9,9.88-15.05,13-.53.27-1.37-.09-2.07-.16-.22-2.38.61-3.55,3-4.82,3.07-1.66,5.39-4.72,8-7.17Z" transform="translate(-57 -45)"/><path class="cls-2" d="M453.13,95.06c.58-.73,1.16-2.08,1.73-2.08A16.94,16.94,0,0,1,459,94h0l1.1,1a22.23,22.23,0,0,1,2.6,1.86c.86.8,1.56,1.78,2.9,3.34-.07,1.15-.21,3.53-.38,6.52C461.1,102.75,457.12,98.9,453.13,95.06Z" transform="translate(-57 -45)"/><path class="cls-19" d="M219.4,172.65l2.44,2.33L201,186.65l-1.19-.93c.91-1.26,1.55-3,2.78-3.69,3.73-2.07,7.75-3.63,11.54-5.61A45,45,0,0,0,219.4,172.65Z" transform="translate(-57 -45)"/><path class="cls-15" d="M140,219c-.54-.84-1.52-1.65-1.56-2.51-.13-2.6.11-5.21.2-7.81l-2-.54,5.14-6.33L144,216l0,0C140.7,214.36,141.2,217.85,140,219Z" transform="translate(-57 -45)"/><path class="cls-20" d="M153.82,279.09c-2.63-3.43-5.36-6.8-7.87-10.31-1.81-2.53-3.35-5.25-5-7.88-.65-.92-1.3-1.83-1.94-2.75L138,256v-4l3,1.09c3.35,6.46,6.73,12.9,10,19.4C152.12,274.61,152.9,276.88,153.82,279.09Z" transform="translate(-57 -45)"/><path class="cls-24" d="M423,304l8-6,2.08.09q-4.4,8.37-8.8,16.72l-1.29-.21Z" transform="translate(-57 -45)"/><path class="cls-15" d="M434.78,218.45c-.23-1.32,0-3-.77-3.89-2.15-2.67-4.67-5-7-7.52l15.12,6.86c-.37,1-.73,2.07-1.09,3.1h0l-3,2.08Z" transform="translate(-57 -45)"/><path class="cls-17" d="M523,280.86c1.19-3.95,2.41-7.89,3.55-11.86,1.55-5.36,3-10.73,4.55-16.1l1,.08,0,3q-1,4-2.05,8.06c-1,5.85-2,11.7-2.87,16.7,0,.14-.23-.88-.55-2.15Z" transform="translate(-57 -45)"/><path class="cls-16" d="M507,241c.12,2.63.23,5.25.29,6.68-1.51,3.4-2.63,5.91-3.45,7.77L500,250c.5-1.7,1.13-3.36,1.47-5.09C502.08,241.78,503.9,240.52,507,241Z" transform="translate(-57 -45)"/><path class="cls-19" d="M470,64.82c-.05,1.11-.1,2.22-.16,3.33L448.89,63C456.94,58.94,463.23,64.17,470,64.82Z" transform="translate(-57 -45)"/><path class="cls-17" d="M404.22,164.87l-15.66-2.27,0-1.56,11.76-2.23,4.52,5.13Z" transform="translate(-57 -45)"/><path class="cls-20" d="M254,160.05l18.14-1.39.27.92L248,164.79Z" transform="translate(-57 -45)"/><path class="cls-16" d="M527,227l-2.13-4,3.31-9.68c3.35-.15,3,1.86,2.08,4.7-.54,1.77-3.49,5.05,1.75,5.06h0C532.2,226.69,529.88,227.18,527,227Z" transform="translate(-57 -45)"/><path class="cls-19" d="M254,160.05l-6,4.74-11.47,3.28-.57-1.68C241.18,162.3,248.05,162.31,254,160.05Z" transform="translate(-57 -45)"/><path class="cls-2" d="M530,264q1-4,2.05-8.06h3.81q-1.46,6.51-2.89,13Z" transform="translate(-57 -45)"/><path class="cls-23" d="M491,325.93l2.83-3.87,7.77.49-5.27,7.88Z" transform="translate(-57 -45)"/><path class="cls-20" d="M487.72,135.65c3.09,7.43,2.4,14.89,1.76,22.36h-1.76Z" transform="translate(-57 -45)"/><path class="cls-15" d="M153.26,81l-8.21,8.06-.14-.12,7-11.92L157.05,76Z" transform="translate(-57 -45)"/><path class="cls-24" d="M141,253.08,138,252l0,0-1-2,0,0-1-1,0,0-1-3-1.17-4.68,1.33-.3C139.68,243.8,140.06,248.59,141,253.08Z" transform="translate(-57 -45)"/><path class="cls-24" d="M446,75c-2.35,1-4.64,2.51-7.07,2.8-1.53.18-3.28-1.48-4.93-2.31l.46-1.63,11.45-.74Z" transform="translate(-57 -45)"/><path class="cls-22" d="M209,330.8l12.69,1.39,0,1.9c-1.13.24-2.29.81-3.36.68-2.24-.29-4.8-2.43-5.92,1.52L211,335Z" transform="translate(-57 -45)"/><path class="cls-15" d="M464.45,137.56q2.37,9.85,4.73,19.71l-1.73.4q-2.34-9.81-4.69-19.64Z" transform="translate(-57 -45)"/><path class="cls-18" d="M167,302.05l-6-6c0-1,0-2.05,0-3.08q5,5,10,10.06Z" transform="translate(-57 -45)"/><path class="cls-15" d="M392,323.07a35.7,35.7,0,0,1,3.51-2.81c3.47-2.15,7-4.17,10.54-6.23-.11,1.16.14,3.11-.39,3.36C401.2,319.46,396.59,321.22,392,323.07Z" transform="translate(-57 -45)"/><path class="cls-19" d="M228,336.14l16.63-2.85C243.44,337,241.58,337.35,228,336.14Z" transform="translate(-57 -45)"/><path class="cls-19" d="M533,269q1.44-6.51,2.89-13c.09-.94.18-1.88.28-2.82l1.44.2q-1.33,9.89-2.68,19.76l-1.73-.12C533.14,271.66,533.08,270.33,533,269Z" transform="translate(-57 -45)"/><path class="cls-15" d="M435.93,351c3.2-1.61,6.37-3.26,9.59-4.79,1.78-.85,3.65-1.51,5.48-2.25h0l-15.08,10.07C435.92,353.06,435.93,352.05,435.93,351Z" transform="translate(-57 -45)"/><path class="cls-16" d="M151.1,340.94c-3.16,2.17-5.91,2.48-7.86-2l3.87-3.13Z" transform="translate(-57 -45)"/><path class="cls-7" d="M455,223.1c-.68,1-1.35,1.93-2,2.9-2.44-3.41-5.95-4.21-9.85-4.1-.06-.3-.14-.59-.22-.89l.12-2Z" transform="translate(-57 -45)"/><path class="cls-20" d="M155.85,290.13c-.64-3-1.28-6.05-1.91-9.07,4.47,2.81,5.73,7,5,12Z" transform="translate(-57 -45)"/><path class="cls-15" d="M139,326c-4.82-.59-6.91-3.84-7.95-8.13C135.59,318.71,137.14,322.49,139,326Z" transform="translate(-57 -45)"/><path class="cls-17" d="M476,305l-6,.87,8-7.95Q477,301.49,476,305Z" transform="translate(-57 -45)"/><path class="cls-25" d="M433,371l-12,3.06,0-1.13,3-1.81,3-1.17,1.06-1,1.94,1,3,1Z" transform="translate(-57 -45)"/><path class="cls-25" d="M445.06,367.11,433,371l0,0,0-1c3-1.18,6-2.47,9.05-3.46C442.92,366.27,444.06,366.9,445.06,367.11Z" transform="translate(-57 -45)"/><path class="cls-20" d="M209,330.8l2,4.22-10.35-6.67C204.43,327.93,206.88,328.51,209,330.8Z" transform="translate(-57 -45)"/><path class="cls-20" d="M508,321l6.49-8.22,1.77,1.78L508,321Z" transform="translate(-57 -45)"/><path class="cls-25" d="M449,369,448,367l5.07-3.16,1.17,1.92Z" transform="translate(-57 -45)"/><path class="cls-2" d="M424,376.85l5.09-1.79,2.38,2.94H424Z" transform="translate(-57 -45)"/><path class="cls-15" d="M130.07,316,125,309.93Z" transform="translate(-57 -45)"/><path class="cls-18" d="M173,306.82l-.77-.82c-.11-.66-.21-1.31-.31-2,3.13.18,5.82.73,4.09,4.94h-1l0,0-1-1,0,0Z" transform="translate(-57 -45)"/><path class="cls-23" d="M446,75l-.09-1.88L452.1,76l-.78,1.54Z" transform="translate(-57 -45)"/><path class="cls-15" d="M184.07,344.08l-1.93-3.2.88-1,5,4.17Z" transform="translate(-57 -45)"/><path class="cls-23" d="M431.07,70.07c.37,1.31.73,2.63,1.19,4.29l-2.61.23,1.29-4.65Z" transform="translate(-57 -45)"/><path class="cls-15" d="M443,219l-.12,2c-.63-1.33-1.25-2.67-1.88-4h0l2-2.22a5.37,5.37,0,0,1,1,.19l.21,1.34Z" transform="translate(-57 -45)"/><path class="cls-19" d="M171.92,304c.1.65.2,1.3.31,2l-3.36-1-1.92-3,4,1C171.29,303.38,171.6,303.71,171.92,304Z" transform="translate(-57 -45)"/><path class="cls-2" d="M532.06,253l-1-.08c0-2-.06-3.94-.08-5.91Z" transform="translate(-57 -45)"/><path class="cls-2" d="M438,372.81l5.1-.88Z" transform="translate(-57 -45)"/><path class="cls-18" d="M193,323l-2-1,2.2-3.21,1.21.73Z" transform="translate(-57 -45)"/><path class="cls-20" d="M525.9,298.88l-1.82,3.54L523,302l1.58-3.86Z" transform="translate(-57 -45)"/><path class="cls-2" d="M379,378l3,1Z" transform="translate(-57 -45)"/><path class="cls-22" d="M379,150.14V149h0l3,1.78Z" transform="translate(-57 -45)"/><path class="cls-19" d="M188.25,321,184,318Z" transform="translate(-57 -45)"/><path class="cls-23" d="M430.94,69.94c.07-1,.14-2.06.2-3.09l1.42.48-1.49,2.74Z" transform="translate(-57 -45)"/><path class="cls-20" d="M532.94,285.9c-.27.57-.53,1.14-.84,1.69,0,0-.5-.22-.77-.33.3-.57.59-1.14.88-1.71Z" transform="translate(-57 -45)"/><path class="cls-20" d="M161,293c0,1,0,2.05,0,3.08L159,293Z" transform="translate(-57 -45)"/><path class="cls-17" d="M443,214.78,441,217c.36-1,.72-2.07,1.09-3.1Z" transform="translate(-57 -45)"/><path class="cls-2" d="M433,370l0,1-3-1Z" transform="translate(-57 -45)"/><path class="cls-19" d="M180,314l-2-2Z" transform="translate(-57 -45)"/><path class="cls-16" d="M532,223l2-.89.21.74L532,223Z" transform="translate(-57 -45)"/><path class="cls-16" d="M171,225.1,170,228Z" transform="translate(-57 -45)"/><path class="cls-15" d="M436,354.76l-2.1,1.21Z" transform="translate(-57 -45)"/><path class="cls-17" d="M460,361,462,360l0,0-1.94,1.08Z" transform="translate(-57 -45)"/><path class="cls-20" d="M529,292l1-2,.12.11L529,292Z" transform="translate(-57 -45)"/><path class="cls-22" d="M385,150.88l.86-1.85Z" transform="translate(-57 -45)"/><path class="cls-17" d="M481,295.93,479,297Z" transform="translate(-57 -45)"/><path class="cls-20" d="M153.9,279.89v-.71l1.23.17Z" transform="translate(-57 -45)"/><path class="cls-19" d="M429.34,67.34c0,.12,0,.3,0,.34a1.19,1.19,0,0,1-.44.11l.05-.59Z" transform="translate(-57 -45)"/><path class="cls-15" d="M436,348.92c0,.71,0,1.42,0,2.14C436,350.34,436,349.63,436,348.92Z" transform="translate(-57 -45)"/><path class="cls-22" d="M485.81,342l-.75.06,2-1,0,0v1l0,0Z" transform="translate(-57 -45)"/><path class="cls-17" d="M444.22,216.31,444,215l1.28.67Z" transform="translate(-57 -45)"/><path class="cls-15" d="M144,216c.28.39.55.78.06.09.16.8.07.34,0-.12Z" transform="translate(-57 -45)"/><path class="cls-22" d="M484,343.09c0,.27,0,.53,0,.8l-1.3-.22Z" transform="translate(-57 -45)"/><path class="cls-19" d="M229.07,157.09c-.39.24-.77.49-1.18.7a2.61,2.61,0,0,1-.29-.36l1.33-.5Z" transform="translate(-57 -45)"/><path class="cls-19" d="M181,315l-1-1Z" transform="translate(-57 -45)"/><path class="cls-19" d="M178,312l-1-1Z" transform="translate(-57 -45)"/><path class="cls-19" d="M177,311l-1-1Z" transform="translate(-57 -45)"/><path class="cls-19" d="M182,316l-1-1Z" transform="translate(-57 -45)"/><path class="cls-19" d="M183,317l-1-1Z" transform="translate(-57 -45)"/><path class="cls-19" d="M184,318l-1-1Z" transform="translate(-57 -45)"/><path class="cls-19" d="M175,309h1l0,1Z" transform="translate(-57 -45)"/><path class="cls-2" d="M452,98l.42.23L452,98Z" transform="translate(-57 -45)"/><path class="cls-20" d="M508,321l-.43.4L508,321Z" transform="translate(-57 -45)"/><path class="cls-23" d="M460.1,95,459,94Z" transform="translate(-57 -45)"/><path class="cls-17" d="M479,297l-1,1Z" transform="translate(-57 -45)"/><path class="cls-17" d="M482,295l-1.05.91Z" transform="translate(-57 -45)"/><path class="cls-20" d="M529,292l-.44.4L529,292Z" transform="translate(-57 -45)"/><path class="cls-22" d="M489,339l.39-.44c0,.09,0,.21-.07.26a2.84,2.84,0,0,1-.35.16Z" transform="translate(-57 -45)"/><path class="cls-22" d="M488,340l1-1,0,0c-.33.33-.67.66-1,1Z" transform="translate(-57 -45)"/><path class="cls-22" d="M487,341l1-1,0,0-1,1Z" transform="translate(-57 -45)"/><path class="cls-20" d="M530,289.94l.5-.39-.38.5Z" transform="translate(-57 -45)"/><path class="cls-22" d="M485,342.07l-.95.95Z" transform="translate(-57 -45)"/><path class="cls-15" d="M188.81,344.17l1.24.74Z" transform="translate(-57 -45)"/><path class="cls-15" d="M190.08,344.94l1,.87Z" transform="translate(-57 -45)"/><path class="cls-22" d="M484,348l1,0Z" transform="translate(-57 -45)"/><path class="cls-17" d="M460.05,361.06l-.53.45c.15-.18.29-.36.43-.55Z" transform="translate(-57 -45)"/><polygon class="cls-17" points="404.44 317.66 404.36 317.41 404.6 317.45 404.44 317.66"/><path class="cls-22" d="M371,147c0,.33,0,.66,0,1Z" transform="translate(-57 -45)"/><path class="cls-1" d="M415,377.93l3,.05Z" transform="translate(-57 -45)"/><path class="cls-1" d="M424,376.85l0,1.15-3-1Z" transform="translate(-57 -45)"/><path class="cls-1" d="M418,378l.95-.91Z" transform="translate(-57 -45)"/><path class="cls-1" d="M443.1,221.9c3.9-.11,7.41.69,9.85,4.1l.05-.06-.84.91-1.26,6.93q-1.5,4.51-3,9L437.43,254l3.93.75c-2.66,3.8-5,7.17-7.49,10.67V271l-.9.94-3.15,5c-.87.32-2.26.4-2.54,1-4.82,10.34-13.9,16.47-22.48,23.11-10.87,8.42-24.29,11-36.71,15.83-1.09-.75-2.48-2.35-3.23-2.1-2.29.77-6,.05-5.93,4.21-19.89,1.42-37.1-5.5-52.85-17,1.15-.24,2.32-.4,3.44-.73s2.34-.83,3.51-1.26l1-.93L333,296c2.74-1.21,5.38-2.81,8.23-3.52,4.54-1.12,9.23-1.65,13.85-2.43l4.79-2.62-1.13-1.58-3.58,3.1a20.66,20.66,0,0,0-3.76-.13c-4.81.66-9.6,1.45-14.39,2.19l-2,.87L333,292c0-.32,0-.64,0-1l-1-2a69.05,69.05,0,0,0-7.86-.38A37.19,37.19,0,0,0,318,290v1h-4.07c-1.67-4.6-4.61-.74-6.93-1L304,288l-6.06.15-6-.2-3,0-2-1c-.49-1.26-1-2.53-1.45-3.8l-1.73,1.35L287,287l2,1,1,2.06-7,2.8-.45-1.2-.55,1.12c-.42,1.23-1.56,2.93-1.13,3.6a75.17,75.17,0,0,0,6.9,8.91c5.32,5.95,10.8,11.76,16.22,17.63l-6.91-.74-2.71-.89-2.39-.08-2,.25-13.3-1L264.93,317,246,314.78c-.2-.43-.36-1.22-.6-1.25-6.94-.69-10.43-5.08-12.88-11.13-1.1-2.73-3.45-4.95-5.23-7.4l-2.46-11.39c-.36-.91-.73-1.82-1.09-2.72-4.22-16.16-.42-31.23,6.25-45.9l3-1.08c1,2.1,1.45,5.43,3,6.06,5.77,2.32,11.9,3.74,17.9,5.5,2.16.62,4.06,1.29,5.88,1.13A47.64,47.64,0,0,0,267,245l1,1c5.79-1.61,11.6-3.17,17.36-4.85,3.26-.95,6.47-2.09,9.7-3.14l.85-.52c3.82-.87,7.65-1.69,11.45-2.64,9.07-2.29,18.1-4.7,27.19-6.92,1.81-.45,3.81-.14,5.67-.46,3.88-.67,7.73-1.52,11.6-2.3L353,221.9l3.89-1.26c.36.61.72,1.22,1.09,1.83l.91-2.76c-.93-4.2,2.63-1.92,4-2.78l2.56,1.49.46-2.63L364,212l-.16-1.32c2.42-.53,5.06-.62,7.2-1.7,4.75-2.38,9.26-5.27,13.87-7.95l19,6.27c.21-.53.42-1.06.62-1.59-3.07-.81-4-5.46-8.54-3.82-.7.25-1.79-.64-2.72-1a100.61,100.61,0,0,0-10.81-3.47c-1-.22-2.4,1.55-3.62,2.4a354.27,354.27,0,0,0-47.43,1.27l-1.35.59-4.72.4-1.23.47L321,203c.08-.65-.09-1.65.28-1.9,5.44-3.88,10.67-8.21,16.56-11.24,3.28-1.69,7.19-2,9.12-5.79,4.63,1,9.35,1.59,13.86,2.94,13.92,4.19,27.75,8.68,41.64,13,4.14,1.28,7.25,5.42,12.25,4.4.13,0,.49,1,.74,1.59l-2.48.27.16.71,2.38-.95a90.12,90.12,0,0,1,8.67,4.52c3.67,2.44,7.07,5.29,10.59,8l3.21.63c.35,1,1.27,2.28.93,2.91a53.55,53.55,0,0,1-4,5.89L411.09,246,409,248.05l-6,4-2,0-14.87,7.53.5.71L395,259h1l3.08-1.83c2.19-1.1,4.37-2.22,6.57-3.3,4.07-2,8.15-4,12.22-6l2.13,2.93L418.08,252l-2,3.08L385,275l-5,2-2,1L373,280.92c4.93,2.77,9.39.57,13.45-1.81,7-4.13,13.75-8.77,20.61-13.19,2.32.87,10.5-2.89,12.65-5.66L416.2,258a34.44,34.44,0,0,0,5.39-2.21c.77-.45,1-1.8,1.47-2.75l5.62-2.46L426.06,246c2.23-.93,6.24-.46,3.94-5l-4-2,10-8.92a35.76,35.76,0,0,0,5-3.94C442,225,442.43,223.34,443.1,221.9ZM417,232l5.2-3.15-.15-.55L417,232l-4.12,2.2,1,1.4Q415.45,233.8,417,232Zm-71,30.91,13.1-3.78c8.32-.62,15.29-4.49,21.93-9.14.45-.09.9-.19-.11,0,.8-.63.44-.35.08-.06-.9-.15-1.92-.64-2.69-.39-4.88,1.58-9.79,3.12-14.5,5.12-1.9.8-3.32,2.73-4.95,4.15l-18.43,1.84c-.13,0-.23.23-.34.36-3.06-.29-6.22-1.17-9.15-.69-2.78.46-5.32,2.36-8,3.63q-3.42-3.81-5,1.06c-2.46-.12-5.21.44-7.31-.48-5.46-2.36-10.44.9-15.65.6-5.28-1-6.82,1.34-4.9,7.57L290,275c-6.25-3.35-7.1-5-5.13-9.84-2.32-.11-4.42-.5-3.4,3.25.66,2.42.33,5.1.44,7.67-.29,1.47-.57,2.94-.86,4.42l1.23.11,1.86-3.67L295,279a.94.94,0,0,0,.14.34c0,.06.16.05.25.08L295,279c-.35-1-.7-1.93-1.06-2.89,0-.75,0-1.49,0-2.23.36-2.28.73-4.56,1.09-6.84l12-1,1.3,1.78L310,266h7.88L323,264l5,0c.25,1.76-.89,4.9,3,3l13-2Zm49-17.85L408.11,239l-.9-1.76c-6.09-.79-9.84,3.89-14.4,6.68l-8.45,3.85,1,2.07Zm-10.47,17-.9-1.49-7.11,4.4c.26.43.51.86.77,1.28Zm38.65-35.22,1,1.3,6.06-4.32-.76-1ZM367.73,284l-1.27-1.16c-.69,1-1.39,2-2,3,0,.07.36.41.77.85Zm44.11-49-1-.38c-.26.81-.53,1.62-.79,2.42l.66.27Zm-48.21-11.25c-.27-.12-.61-.39-.81-.31s-.26.51-.38.78c.28.12.62.39.82.31S363.52,224,363.63,223.75Zm7.08,59h-.42v1.48h.42Zm-9.32,3a1.13,1.13,0,0,0-.13.42c0,.05.22.09.35.13a1.36,1.36,0,0,0,.13-.42C361.73,285.8,361.51,285.76,361.39,285.72Zm-73.78-18.44a1.13,1.13,0,0,0,.13-.42c0-.05-.22-.09-.35-.13a1.36,1.36,0,0,0-.13.42C287.27,267.2,287.49,267.24,287.61,267.28Z" transform="translate(-57 -45)"/><path class="cls-26" d="M321,203l3.12-.37,1.23-.47,4.72-.4,1.35-.59a354.27,354.27,0,0,1,47.43-1.27L384,200l1,1-.05,0c-4.61,2.68-9.12,5.57-13.87,7.95-2.14,1.08-4.78,1.17-7.2,1.7l-16.63,1.18a43.4,43.4,0,0,0,12.46,1.06A24.59,24.59,0,0,0,364,212l1.89,3.8-3,1.14c-1.38.86-4.94-1.42-4,2.78l-2,.93L353,221.9l-2,.08-2.06.3-.65.65L348,225l1,1,2.07-.75h.36l.36-.06c-3.87.78-7.72,1.63-11.6,2.3-1.86.32-3.86,0-5.67.46-9.09,2.22-18.12,4.63-27.19,6.92-3.8.95-7.63,1.77-11.45,2.64L295,238c-3.23,1.05-6.44,2.19-9.7,3.14-5.76,1.68-11.57,3.24-17.36,4.85l-1-1a47.64,47.64,0,0,1-7.15,1.64c-1.82.16-3.72-.51-5.88-1.13-6-1.76-12.13-3.18-17.9-5.5-1.57-.63-2-4-3-6.06,0-1.25,0-2.51,0-3.77l11.73,1.06c-2.43-4.13-5.59-6.92-1.1-9.68,3.71-2.29,7.52-4.42,11.29-6.62L274,210l1.11-.81L277,209c5.35-.51,10.71-.92,16.05-1.58,4.88-.61,9.73-1.51,14.6-2.27.45.58,1.09,1.75,1.34,1.67,3.75-1.15,7.45-2.46,11.16-3.73A5.18,5.18,0,0,0,321,203Z" transform="translate(-57 -45)"/><path class="cls-25" d="M254.92,214.9c-3.77,2.2-7.58,4.33-11.29,6.62-4.49,2.76-1.33,5.55,1.1,9.68L233,230.14c1.15-7.93,4.6-14.33,12-18.14l7,0Z" transform="translate(-57 -45)"/><path class="cls-21" d="M318.08,184.8c-16.33-1-31.94,1.32-46.26,9.72L270.9,192c7.29-3.21,14.33-7.71,22-9.25,8-1.61,16.55-.36,24.87-.36C317.85,183.21,318,184,318.08,184.8Z" transform="translate(-57 -45)"/><path class="cls-15" d="M245,212c-7.38,3.81-10.83,10.21-12,18.14,0,1.26,0,2.52,0,3.77L230,235a10.74,10.74,0,0,0-1.28-1.86c-.42-.41-1.08-.57-3-1.52,4.09-6,7.93-11.54,11.75-17.14.53-.77.94-1.61,1.4-2.42Z" transform="translate(-57 -45)"/><path class="cls-16" d="M254.92,214.9,252,212c6.56-1.65,13.08-3.51,19.7-4.83,1.58-.31,3.52,1.17,5.3,1.82l-1.87.17-.73-.48L274,210Z" transform="translate(-57 -45)"/><path class="cls-25" d="M320.14,203.06c-3.71,1.27-7.41,2.58-11.16,3.73-.25.08-.89-1.09-1.34-1.67,3.52-1.55,7-3.16,10.61-4.51C318.53,200.51,319.49,202.2,320.14,203.06Z" transform="translate(-57 -45)"/><path class="cls-13" d="M297.69,174.18c1.27,1.48,5.17,0,4.36,3.82-3.49,2-6.38,1.45-8.92-2.43Z" transform="translate(-57 -45)"/><path class="cls-15" d="M179.7,260.05l2.39,14-1.79.25-1.83-14.12Z" transform="translate(-57 -45)"/><path class="cls-24" d="M455,233l8.94-12c-.64,3-1.27,6-1.91,9-5.76,3.79-10.27,12.9-8.89,19.94,4.05-7,7.29-13,8.85-20,3.62,1.2,5.14,7.08,3,10.52-2.64,4.31-5,8.79-7.34,13.27-1.25,2.4-2.18,5-5.69,4.22.29-1.41.58-2.82,1.06-5.19L447,254c.43-1.9.79-3.82,1.32-5.7,1.18-4.1,2.44-8.18,3.67-12.27Z" transform="translate(-57 -45)"/><path class="cls-25" d="M133.86,241.3,135,246a5.33,5.33,0,0,0,0,1L132.2,249a38.89,38.89,0,0,1-3.66-4.06c-1.27-1.84-2.32-2.89-3.85-.35-1.5-3.22-3.09-6.4-4.46-9.67-2.1-5-4-10.07-6.07-15.11l-.85-1.08a3.43,3.43,0,0,0-.2-.84c-1.91-7.41-3.75-14.84-5.75-22.23A45.71,45.71,0,0,0,105,190c-1.3.42-3.76,1.13-3.73,1.22,1.14,4.63,2.5,9.2,3.83,13.78l0,2-.07,2-6.42,4.5c-.14-4.61-.27-9-.41-13.41.4-.92,1.29-2,1.11-2.75a33.82,33.82,0,0,0-2.26-6c-.89-1.94-2-3.79-3-5.68l-1.62.56,1.74,12.91-4.58.76Q87.25,209.95,85,220l-1.93-.16c-.8-3.21-1.59-6.42-2.65-10.7L78,212.93l-1.93-.07c-.81-8.48-1.65-17-2.42-25.43-.92-10.13-2.16-20.26-2.43-30.42-.09-3.47,2.51-7,3.53-10.54a51.68,51.68,0,0,0,2.07-10.33c.24-3.24-.37-6.54-.61-9.81l16.41-1.83v3.87l.87.65a29.75,29.75,0,0,0,2.19-3.12c4.26-8,11.45-12.86,18.92-17.34,3.42-2.06,7.06-3.74,10.61-5.59-2.57,9.59-5.11,19.18-7.72,28.75a10.31,10.31,0,0,1-1.43,2.38l-7.86-4.66-5.93,11.88,1.73.9,5.28-11,2.42,6.49,4.24-1.68,5,5.35c-.07.27,0,2.47-1,3.21-6.78,5-6,12.2-5.57,19,.55,9.71.54,19.69,2.9,29,3.81,15,9.34,29.64,14.23,44.4A25,25,0,0,0,133.86,241.3ZM108,183.87l-2-15.93v-5.41l-.63-.09-2.16,5.06-1.71-.21q.61-9.71,1.24-19.41a75.58,75.58,0,0,0-4.66,11.66,7.75,7.75,0,0,0,.18,3.43c.52,3,1.14,5.95,1.71,8.93q.47,7.62.94,15.26l.88,0,.34-4.17h3.52l.34,1,.85,1.55Zm-31.73-6.63,1.34-.11V156.48l-1.23,0C75.24,163.44,73.5,170.38,76.22,177.24Zm43,35.83q-2.82-9.34-5.63-18.71l-1.72.53C114.59,200.88,111.7,208.54,119.22,213.07Zm6.55,24.15,2.26-.92-4.35-11.1-2.14.83ZM109.07,168l.23-.11v-9.24l-1.45.18C108.25,161.88,108.66,164.93,109.07,168Zm1.62-23.34-1.26-.18-.16,2.53.67.08Zm-1.55,10.57.67.26.81-1.48-1.1-.41Zm10.49,61.06c-.11-.29-.16-.72-.35-.8s-.55.17-.83.28c.11.28.16.71.35.8S119.35,216.39,119.63,216.28Zm8.62,24.35c.12-.27.39-.61.31-.81s-.51-.26-.78-.38c-.12.28-.39.62-.31.82S128,240.51,128.25,240.63Zm-24.86-96.91a1.36,1.36,0,0,0-.14.43s.23.08.36.13a1.5,1.5,0,0,0,.13-.43S103.51,143.76,103.39,143.72Z" transform="translate(-57 -45)"/><path class="cls-18" d="M124.69,244.62c1.53-2.54,2.58-1.49,3.85.35A38.89,38.89,0,0,0,132.2,249l5.79,7v0c.34.72.68,1.43,1,2.15.64.92,1.29,1.83,1.94,2.75q.51,5.1,1,10.21l-16.47-25.24C125.24,245.45,125,245,124.69,244.62Z" transform="translate(-57 -45)"/><path class="cls-24" d="M105,207c0-.65,0-1.31,0-2,.43-1.11,1.3-2.24,1.22-3.31-.27-3.91-.85-7.79-1.32-11.69a45.71,45.71,0,0,1,2.38,5.67c2,7.39,3.84,14.82,5.75,22.23l-4.15-.44v-6.32C109.24,208.28,108,206.79,105,207Z" transform="translate(-57 -45)"/><path class="cls-24" d="M94.12,199.09l-1.74-12.91,1.62-.56c1,1.89,2.1,3.74,3,5.68a33.82,33.82,0,0,1,2.26,6c.18.79-.71,1.83-1.11,2.75Z" transform="translate(-57 -45)"/><path class="cls-15" d="M174,333l5.14,3.47-1.44,1.5L174,333Z" transform="translate(-57 -45)"/><path class="cls-22" d="M105,207c3-.19,4.2,1.3,3.92,4.18l-4-2.22C105,208.29,105,207.63,105,207Z" transform="translate(-57 -45)"/><path class="cls-24" d="M113.31,218.76l.85,1.08Z" transform="translate(-57 -45)"/><path class="cls-15" d="M174,333l-.43-.22.41.24Z" transform="translate(-57 -45)"/><path class="cls-18" d="M115.93,136l-4.24,1.68-2.42-6.49-5.28,11-1.73-.9,5.93-11.88,7.86,4.66Z" transform="translate(-57 -45)"/><path class="cls-15" d="M145.05,89.05l-.88,3.5L143,92l1.92-3.1Z" transform="translate(-57 -45)"/><path class="cls-15" d="M142,96l.29-1.33L142,96Z" transform="translate(-57 -45)"/><path class="cls-15" d="M142,96l-.32,1.26c.12-.4.24-.81.37-1.21Z" transform="translate(-57 -45)"/><path class="cls-15" d="M504,276c-3.62,5.31-6.58,11.27-12.43,14.38L489.86,289c4-5.72,8-11.46,12.13-17.07.18-.23,2,.72,3,1.12h0l-2.63,1.68L504,276Z" transform="translate(-57 -45)"/><path class="cls-2" d="M427,370l-3,1.17Z" transform="translate(-57 -45)"/><path class="cls-15" d="M505,273h1l-1,2h0v-2Z" transform="translate(-57 -45)"/><path class="cls-15" d="M451,344l.23-.42L451,344Z" transform="translate(-57 -45)"/><path class="cls-15" d="M505,275l-1,1v0l1-1Z" transform="translate(-57 -45)"/><path class="cls-15" d="M506,273l1-1-1,1Z" transform="translate(-57 -45)"/><polygon class="cls-15" points="450 227 450.23 226.58 450.42 226.77 450 227"/><path class="cls-27" d="M227.29,295c1.78,2.45,4.13,4.67,5.23,7.4,2.45,6.05,5.94,10.44,12.88,11.13.24,0,.4.82.6,1.25-5.11,1.08-9.36-.81-12.67-6.55C230.91,304.05,229.27,299.43,227.29,295Z" transform="translate(-57 -45)"/><path class="cls-27" d="M264.93,317l11.77,3.44c-.93,5.36-4.36,1.36-5.87,1C268.63,320.94,266.87,318.6,264.93,317Z" transform="translate(-57 -45)"/><path class="cls-27" d="M294.37,321.3l2.71.89Z" transform="translate(-57 -45)"/><path class="cls-27" d="M223.74,280.89c.36.9.73,1.81,1.09,2.72C224.46,282.71,224.1,281.8,223.74,280.89Z" transform="translate(-57 -45)"/><path class="cls-27" d="M290,321.47l2-.25Z" transform="translate(-57 -45)"/><path class="cls-14" d="M77,225q2.49,8.5,5,17H80q-2.49-7.49-5-15Z" transform="translate(-57 -45)"/><path class="cls-15" d="M75,227q2.5,7.5,5,15v3.9l-1.59.26Z" transform="translate(-57 -45)"/><path class="cls-16" d="M83,244l.38-7.89.61-.19L86,245Z" transform="translate(-57 -45)"/><path class="cls-24" d="M433.87,271v-5.55c2.46-3.5,4.83-6.87,7.49-10.67l-3.93-.75,10.48-11.19c-.41,1.37-.78,2.76-1.25,4.11-1.87,5.36-3.78,10.71-5.67,16.05l0,0-2,2-2,4Z" transform="translate(-57 -45)"/><path class="cls-16" d="M441,263c1.89-5.34,3.8-10.69,5.67-16.05.47-1.35.84-2.74,1.25-4.11q1.5-4.51,3-9c.37.75.74,1.51,1.12,2.26-1.23,4.09-2.49,8.17-3.67,12.27-.53,1.88-.89,3.8-1.32,5.7h0c0,.33,0,.65,0,1Z" transform="translate(-57 -45)"/><path class="cls-20" d="M313.93,291H318l4,0a1.24,1.24,0,0,1,.24.43c0,.13-.09.4-.17.41-3.06.42-6.12.87-9.19,1.2-2.36.25-4.94.16-3.81,3.82l-6-.93c-.7-1.63-1.39-3.26-2.09-4.88Z" transform="translate(-57 -45)"/><path class="cls-19" d="M313.93,291,301,291c-1-1-2-1.91-3-2.86L304,288l3,1.95C309.32,290.25,312.26,286.39,313.93,291Z" transform="translate(-57 -45)"/><path class="cls-16" d="M358.93,319c-.05-4.16,3.64-3.44,5.93-4.21.75-.25,2.14,1.35,3.23,2.1Z" transform="translate(-57 -45)"/><path class="cls-24" d="M303.07,295.89l6,.94,2,0L306.66,300H313c-1.17.43-2.31.92-3.51,1.26s-2.29.49-3.44.73C305.08,300,304.07,297.92,303.07,295.89Z" transform="translate(-57 -45)"/><path class="cls-16" d="M433.87,271l3.12-2c1.25,3.85-2.25,8.5-6,8l2-5.07Z" transform="translate(-57 -45)"/><path class="cls-27" d="M290,290.07c-.33-.69-.66-1.37-1-2.06l0,0,3,0Z" transform="translate(-57 -45)"/><path class="cls-24" d="M433,271.91,431,277l-1.16,0C430.87,275.26,431.92,273.59,433,271.91Z" transform="translate(-57 -45)"/><path class="cls-16" d="M439,265l2-2Z" transform="translate(-57 -45)"/><path class="cls-27" d="M282,292.79l.55-1.12.45,1.2Z" transform="translate(-57 -45)"/><path class="cls-24" d="M447,255c0-.33,0-.65,0-1C447,254.35,447,254.67,447,255Z" transform="translate(-57 -45)"/><path class="cls-7" d="M452.16,226.85l.84-.91Z" transform="translate(-57 -45)"/><path class="cls-1" d="M342,168l1.1-.92.33.61L342,168Z" transform="translate(-57 -45)"/><path class="cls-1" d="M342,168l-.45.4L342,168Z" transform="translate(-57 -45)"/><path class="cls-16" d="M78,212.93l2.41-3.8c1.06,4.28,1.85,7.49,2.65,10.7.61,3,1.35,5.94,1.75,8.95a16.74,16.74,0,0,1-.52,4.27l-1.5.06Q80.38,223,78,212.93Z" transform="translate(-57 -45)"/><path class="cls-3" d="M302.38,171.27c.12-.28.19-.71.39-.79s.53.2.81.32c-.12.28-.18.71-.38.79S302.66,171.39,302.38,171.27Z" transform="translate(-57 -45)"/><path class="cls-1" d="M485.81,342H487c0,.38,0,.77,0,1.15C486.61,342.76,486.21,342.37,485.81,342Z" transform="translate(-57 -45)"/><path class="cls-19" d="M174,308l1,1Z" transform="translate(-57 -45)"/><path class="cls-19" d="M173,306.82l1,1.19Z" transform="translate(-57 -45)"/><path class="cls-22" d="M379,149l-2.77-1.8,1-1L379,149Z" transform="translate(-57 -45)"/><path class="cls-22" d="M384.07,144.94l-1.26,1.58-.33-.33,1.58-1.26Z" transform="translate(-57 -45)"/><path class="cls-22" d="M374.38,146.53c-.13.08-.27.21-.4.2s-.23-.17-.35-.26Z" transform="translate(-57 -45)"/><path class="cls-24" d="M138,256l-5.79-7L135,247c.34.69.68,1.37,1,2.06l0,0,1,1,0,0,1,2,0,0Z" transform="translate(-57 -45)"/><path class="cls-24" d="M139,258.15c-.35-.72-.69-1.43-1-2.15C138.32,256.72,138.66,257.43,139,258.15Z" transform="translate(-57 -45)"/><path class="cls-17" d="M434.92,227.88a53.55,53.55,0,0,0,4-5.89c.34-.63-.58-1.92-.93-2.91l3-2.08c.63,1.34,1.25,2.68,1.88,4,.08.3.16.59.22.89-.67,1.44-1.06,3.13-2.08,4.24a35.76,35.76,0,0,1-5,3.94Z" transform="translate(-57 -45)"/><path class="cls-20" d="M136,249c-.33-.69-.67-1.37-1-2.06a5.33,5.33,0,0,1,0-1C135.36,247,135.68,248,136,249Z" transform="translate(-57 -45)"/><path class="cls-20" d="M138,252l-1-2Z" transform="translate(-57 -45)"/><path class="cls-20" d="M137,250l-1-1Z" transform="translate(-57 -45)"/><path class="cls-23" d="M407,265.92c-6.86,4.42-13.58,9.06-20.61,13.19-4.06,2.38-8.52,4.58-13.45,1.81L378,278l2-1,5-2L416,255.1l2-3.08,1.91-1.18a7.64,7.64,0,0,0,.82.1l2.25,2.12c-.47.95-.7,2.3-1.47,2.75A34.44,34.44,0,0,1,416.2,258Z" transform="translate(-57 -45)"/><path class="cls-19" d="M434.92,227.88l1.11,2.2L426,239l4,2-12.14,6.91c-4.07,2-8.15,4-12.22,6-2.2,1.08-4.38,2.2-6.57,3.3,1-1.38,2-2.77,2.95-4.15l1-1,6-4,2.07-2.05Z" transform="translate(-57 -45)"/><path class="cls-2" d="M311.07,296.86l-2,0c-1.13-3.67,1.45-3.58,3.81-3.83,3.07-.33,6.13-.78,9.19-1.2.08,0,.18-.28.17-.41A1.39,1.39,0,0,0,322,291c0-.32,0-.64,0-1l.23-.41L322,290h-4a37.19,37.19,0,0,1,6.14-1.38A69.05,69.05,0,0,1,332,289l1,2c0,.32,0,.64,0,1l-1,1L314.05,296Z" transform="translate(-57 -45)"/><path class="cls-20" d="M344,265l-13,2-3-3-5,0v0c2.64-1.27,5.18-3.17,8-3.63,2.93-.48,6.09.4,9.15.68l3.91,2Z" transform="translate(-57 -45)"/><path class="cls-24" d="M384,200l-5.13-.17c1.22-.85,2.64-2.62,3.62-2.4a100.61,100.61,0,0,1,10.81,3.47c.93.32,2,1.21,2.72,1,4.53-1.64,5.47,3,8.54,3.82-.2.53-.41,1.06-.62,1.59l-19-6.27.05,0Z" transform="translate(-57 -45)"/><path class="cls-17" d="M381,250c-6.64,4.65-13.61,8.52-21.93,9.14l-.25-.29c1.64-1.42,3.06-3.35,5-4.15,4.71-2,9.62-3.54,14.5-5.12.77-.25,1.79.24,2.69.39Z" transform="translate(-57 -45)"/><path class="cls-17" d="M293.94,276.11,295,279h0l-10.86-2.11-2.23-.86c-.11-2.57.22-5.25-.44-7.67-1-3.75,1.08-3.36,3.4-3.25-2,4.88-1.12,6.49,5.13,9.84a6.44,6.44,0,0,0,1,.17Z" transform="translate(-57 -45)"/><path class="cls-19" d="M314.05,296,332,292.92l1,3.05-18.92,3.11L314,299l2.13-1.5Z" transform="translate(-57 -45)"/><path class="cls-22" d="M333,296l-1-3.05,1-1,1.94-.1,2-.87c4.79-.74,9.58-1.53,14.39-2.19a20.66,20.66,0,0,1,3.76.13c0,.36,0,.73-.08,1.1-4.62.78-9.31,1.31-13.85,2.43C338.37,293.16,335.73,294.76,333,296Z" transform="translate(-57 -45)"/><path class="cls-17" d="M392.81,244c4.56-2.79,8.31-7.47,14.4-6.68l.9,1.76L395,245.08Z" transform="translate(-57 -45)"/><path class="cls-22" d="M317.88,266H310l-3,.09-12,1v-1.86c5.21.3,10.19-3,15.65-.6,2.1.92,4.85.36,7.31.48C318,265.36,317.93,265.65,317.88,266Z" transform="translate(-57 -45)"/><path class="cls-17" d="M407,265.92l9.16-7.9,3.49,2.24C417.54,263,409.36,266.79,407,265.92Z" transform="translate(-57 -45)"/><path class="cls-20" d="M402,253c-1,1.38-2,2.77-2.95,4.15L396,259h-1l-8.37,1.26-.5-.71L401,252Z" transform="translate(-57 -45)"/><path class="cls-24" d="M295,265.18V267c-.36,2.28-.73,4.56-1.09,6.84l-2.83-.07-1-1.07C288.2,266.52,289.74,264.14,295,265.18Z" transform="translate(-57 -45)"/><path class="cls-19" d="M344,263l-3.91-2c.11-.12.21-.33.34-.35l18.42-1.84.25.29L346,262.94Z" transform="translate(-57 -45)"/><path class="cls-1" d="M417.86,247.91,430,241c2.3,4.52-1.71,4.05-3.94,5l-5.25,5a7.64,7.64,0,0,1-.82-.1Z" transform="translate(-57 -45)"/><path class="cls-15" d="M364,212a24.59,24.59,0,0,1-4.33.92,43.4,43.4,0,0,1-12.46-1.06l16.63-1.18C363.92,211.11,364,211.55,364,212Z" transform="translate(-57 -45)"/><path class="cls-24" d="M420.81,250.94l5.25-5,2.62,4.62-5.62,2.46Z" transform="translate(-57 -45)"/><path class="cls-23" d="M392.81,244l2.21,1.13-9.67,4.79-1-2.07Z" transform="translate(-57 -45)"/><path class="cls-20" d="M384.55,262.1l-7.24,4.19c-.26-.42-.51-.85-.77-1.28l7.11-4.4Z" transform="translate(-57 -45)"/><path class="cls-27" d="M423.2,226.88l6.26-4,.76,1-6.06,4.32Z" transform="translate(-57 -45)"/><path class="cls-27" d="M317.88,266c.05-.3.08-.59.1-.89q1.57-4.87,5-1.06v0Z" transform="translate(-57 -45)"/><path class="cls-27" d="M281.91,276l2.23.86-1.86,3.67-1.23-.11C281.34,279,281.62,277.5,281.91,276Z" transform="translate(-57 -45)"/><path class="cls-27" d="M355.07,290c0-.37.05-.74.08-1.1l3.58-3.1,1.13,1.58Z" transform="translate(-57 -45)"/><path class="cls-27" d="M378,278,373,280.92Z" transform="translate(-57 -45)"/><path class="cls-27" d="M287,287l-3.16-2.47,1.73-1.35c.48,1.27,1,2.54,1.45,3.8Z" transform="translate(-57 -45)"/><path class="cls-27" d="M417,232l5.1-3.65.15.55L417,232Z" transform="translate(-57 -45)"/><path class="cls-27" d="M367.73,284l-2.54,2.65c-.41-.44-.81-.78-.77-.85.65-1,1.35-2,2-3Z" transform="translate(-57 -45)"/><path class="cls-27" d="M385,275l-5,2Z" transform="translate(-57 -45)"/><path class="cls-27" d="M328,264l3,3C327.11,268.9,328.25,265.76,328,264Z" transform="translate(-57 -45)"/><path class="cls-27" d="M417,232q-1.57,1.78-3.16,3.55l-1-1.4L417,232Z" transform="translate(-57 -45)"/><path class="cls-27" d="M418.08,252l-2,3.08Z" transform="translate(-57 -45)"/><path class="cls-27" d="M362.9,216.93l3-1.14c-.15.88-.3,1.75-.46,2.63Z" transform="translate(-57 -45)"/><path class="cls-27" d="M356.89,220.64l2-.93c-.3.92-.61,1.84-.91,2.76C357.61,221.86,357.25,221.25,356.89,220.64Z" transform="translate(-57 -45)"/><path class="cls-27" d="M307,266.05l3-.09-1.7,1.87Z" transform="translate(-57 -45)"/><path class="cls-27" d="M351.78,225.16l-.36.06h-.36L351,222l2-.08C352.59,223,352.18,224.07,351.78,225.16Z" transform="translate(-57 -45)"/><path class="cls-27" d="M307,290,304,288Z" transform="translate(-57 -45)"/><path class="cls-27" d="M411.84,235l-1.15,2.31L410,237c.26-.8.53-1.61.79-2.42Z" transform="translate(-57 -45)"/><path class="cls-18" d="M291.1,273.81l2.83.07c0,.74,0,1.48,0,2.23l-3-1C291,274.68,291.06,274.24,291.1,273.81Z" transform="translate(-57 -45)"/><path class="cls-27" d="M363.64,223.75c-.12.28-.18.7-.38.78s-.54-.19-.82-.31c.12-.27.18-.71.38-.78S363.36,223.63,363.64,223.75Z" transform="translate(-57 -45)"/><path class="cls-27" d="M411.09,246,409,248.05Z" transform="translate(-57 -45)"/><path class="cls-27" d="M402,253l-1-1,2,0Z" transform="translate(-57 -45)"/><path class="cls-27" d="M287,287l2,1,0,0-2-1Z" transform="translate(-57 -45)"/><path class="cls-2" d="M337,291l-2,.87Z" transform="translate(-57 -45)"/><path class="cls-27" d="M318,290h4c0,.32,0,.64,0,1l-4,0Z" transform="translate(-57 -45)"/><path class="cls-27" d="M344,263l2-.08L344,265Z" transform="translate(-57 -45)"/><path class="cls-27" d="M333,291l-1-2Z" transform="translate(-57 -45)"/><path class="cls-27" d="M415.52,206l-2.38.95-.16-.71,2.48-.27Z" transform="translate(-57 -45)"/><ellipse class="cls-27" cx="313.5" cy="238.5" rx="0.29" ry="1.05"/><path class="cls-27" d="M361.39,285.72c.12,0,.34.08.35.13a1.36,1.36,0,0,1-.13.42c-.13,0-.35-.08-.35-.13A1.13,1.13,0,0,1,361.39,285.72Z" transform="translate(-57 -45)"/><path class="cls-27" d="M291.1,273.81c0,.43-.09.87-.14,1.31a6.44,6.44,0,0,1-1-.17l.12-2.2Z" transform="translate(-57 -45)"/><path class="cls-23" d="M381,250c.36-.29.72-.57-.08.06,1-.22.56-.12.11,0Z" transform="translate(-57 -45)"/><path class="cls-27" d="M287.61,267.28c-.12,0-.34-.08-.35-.13a1.36,1.36,0,0,1,.13-.42c.13,0,.35.08.35.13A1.13,1.13,0,0,1,287.61,267.28Z" transform="translate(-57 -45)"/><path class="cls-19" d="M314.07,299.08l-1,.93h0l1-1Z" transform="translate(-57 -45)"/><path class="cls-27" d="M395,259h0Z" transform="translate(-57 -45)"/><path class="cls-27" d="M325.36,202.11l-1.23.47Z" transform="translate(-57 -45)"/><path class="cls-17" d="M295,279l.39.42c-.09,0-.21,0-.25-.08A.94.94,0,0,1,295,279Z" transform="translate(-57 -45)"/><path class="cls-27" d="M295,238l.85-.52Z" transform="translate(-57 -45)"/><path class="cls-27" d="M331.43,201.12l-1.35.59Z" transform="translate(-57 -45)"/><path class="cls-27" d="M267,245l1,1Z" transform="translate(-57 -45)"/><path class="cls-1" d="M351,222l.06,3.23L349,226c-.32-.32-.64-.64-1-1,.09-.7.18-1.39.26-2.08a1.31,1.31,0,0,0,.66-.65Z" transform="translate(-57 -45)"/><path class="cls-3" d="M274,210l.38-1.3.73.48Z" transform="translate(-57 -45)"/><path class="cls-27" d="M348.94,222.28a1.31,1.31,0,0,1-.66.65Z" transform="translate(-57 -45)"/><path class="cls-27" d="M348,225c.33.31.65.63,1,1C348.67,225.64,348.35,225.32,348,225Z" transform="translate(-57 -45)"/><path class="cls-1" d="M384,200l1,1Z" transform="translate(-57 -45)"/><path class="cls-26" d="M462,230c-1.56,6.92-4.8,13-8.85,20-1.38-7,3.13-16.15,8.89-19.94Z" transform="translate(-57 -45)"/><path class="cls-18" d="M105.65,183h-3.52c0-.67-.08-1.35-.13-2l.23-.41L102,181c-.67-3-1.35-6.07-2-9.11S98.78,166,98.26,163a7.75,7.75,0,0,1-.18-3.43,75.58,75.58,0,0,1,4.66-11.66q-.61,9.7-1.24,19.41l1.71.21,2.16-5.06.63.09v5.41c-1.67,2.74-3.87,5.33-2.57,8.93Z" transform="translate(-57 -45)"/><path class="cls-16" d="M76.22,177.24c-2.72-6.86-1-13.8.11-20.73l1.23,0v20.65Z" transform="translate(-57 -45)"/><path class="cls-18" d="M119.22,213.07c-7.52-4.53-4.63-12.19-7.35-18.18l1.72-.53Q116.41,203.72,119.22,213.07Z" transform="translate(-57 -45)"/><path class="cls-21" d="M105.65,183l-2.22-6.14c-1.3-3.6.9-6.19,2.57-8.93l2,15.93-2,.16Z" transform="translate(-57 -45)"/><path class="cls-22" d="M105,190c.47,3.9,1,7.78,1.32,11.69.08,1.07-.79,2.2-1.22,3.31-1.33-4.58-2.69-9.15-3.83-13.78C101.22,191.15,103.68,190.44,105,190Z" transform="translate(-57 -45)"/><path class="cls-18" d="M125.77,237.22,121.54,226l2.14-.83L128,236.3Z" transform="translate(-57 -45)"/><path class="cls-18" d="M109.07,168c-.41-3.06-.82-6.11-1.22-9.17l1.45-.18v9.24Z" transform="translate(-57 -45)"/><path class="cls-22" d="M102,181c0,.67.09,1.35.13,2-.11,1.39-.23,2.78-.34,4.17l-.88,0q-.48-7.64-.94-15.27c.68,3,1.36,6.07,2,9.11Z" transform="translate(-57 -45)"/><path class="cls-18" d="M110.69,144.65l-.75,2.43-.67-.08.16-2.53Z" transform="translate(-57 -45)"/><path class="cls-18" d="M109.14,155.22l.38-1.63,1.1.41-.81,1.48Z" transform="translate(-57 -45)"/><path class="cls-18" d="M106,184l2-.16-1.11,1.71Z" transform="translate(-57 -45)"/><path class="cls-18" d="M119.63,216.28c-.28.11-.63.37-.83.28s-.24-.52-.35-.8c.28-.11.63-.37.83-.28S119.52,216,119.63,216.28Z" transform="translate(-57 -45)"/><path class="cls-18" d="M128.25,240.63c-.28-.12-.7-.18-.78-.37s.19-.54.31-.82c.27.12.71.18.78.38S128.37,240.36,128.25,240.63Z" transform="translate(-57 -45)"/><path class="cls-18" d="M103.39,143.72c.12,0,.35.08.35.13a1.5,1.5,0,0,1-.13.43c-.13-.05-.35-.09-.36-.13A1.36,1.36,0,0,1,103.39,143.72Z" transform="translate(-57 -45)"/><path class="cls-8" d="M505,275l-1,1c-.55-.43-1.09-.87-1.63-1.31L505,273Z" transform="translate(-57 -45)"/><path class="cls-20" d="M314,299l-1,1h-6.34l4.41-3.16,3-.84,2.07,1.46Z" transform="translate(-57 -45)"/><path class="cls-27" d="M322,290l.23-.41L322,290Z" transform="translate(-57 -45)"/><path class="cls-25" d="M102,181l.23-.41L102,181Z" transform="translate(-57 -45)"/></svg>