<svg id="Layer_1" data-name="Layer 1" xmlns="http://www.w3.org/2000/svg" viewBox="0 0 244.32 243.58"><defs><style>.cls-1{fill:#e3c0c0;}.cls-2{fill:#696968;}.cls-3{fill:#8ab7ae;}.cls-4{fill:#cfc8b7;}.cls-5{fill:#6a6968;}.cls-6{fill:#cfe9e5;}.cls-7{fill:#89b6ad;}.cls-8{fill:#cfc7b7;}.cls-9{fill:#cfc7b6;}.cls-10{fill:#d0e8e4;}.cls-11{fill:#d1b5b5;}.cls-12{fill:#fdfdfd;}.cls-13{fill:#fbfbfb;}.cls-14{fill:#c7b1b1;}.cls-15{fill:#f9f9f9;}.cls-16{fill:#5d5e5e;}.cls-17{fill:#5e5f5f;}.cls-18{fill:#c4dcd8;}.cls-19{fill:#bdb1a0;}.cls-20{fill:#d1b5b4;}.cls-21{fill:#c5dcd7;}.cls-22{fill:#8bb7ae;}.cls-23{fill:#6e6e6d;}</style></defs><title>new-color-wheel-icon transparent bg vector</title><path class="cls-1" d="M243.85,195.91c1.4,3.53,0,5.9-2.63,8.46-12.57,12.28-24.93,24.77-37.32,37.22-1.74,1.75-3.34,3.37-5.86,1.33Q188.52,233,179,223q21.38-21.22,42.71-42.47A9.51,9.51,0,0,0,223,178c5.61,5.38,11.17,10.82,16.88,16.09C240.92,195,242.52,195.32,243.85,195.91Z" transform="translate(-15.73 -17.42)"/><path class="cls-1" d="M33.26,81.08c.08-1.68-.53-4,.35-4.94q19.92-20.36,40.25-40.3c.82-.81,2.74-.51,4.15-.73,4.22,4.35,8.51,8.63,12.63,13.06,2.29,2.47,4.3,5.2,6.44,7.81L53.32,99.36a27.63,27.63,0,0,1-4.27-2.81C43.72,91.46,38.51,86.25,33.26,81.08Z" transform="translate(-15.73 -17.42)"/><path class="cls-2" d="M124.56,257.53,122.41,261,81.05,243.92V241l0,0,1-1,0,0,1-1,0,0,1-1,0,0,1-1,0,0,1-1,0,0,1-1,0,0,1-1,0,0,1-1,0,0,1-1,0,0,1-1,0,0,1-1,0,0,1-1,0,0,1-1,0,0,1-1,0,0,1-1,0,0,3.3-2.66,3.13-4.16,0-.16,2,0,.05.18c.56.54,1,1.31,1.68,1.59,9.19,3.82,18.41,7.58,27.62,11.36-.67,2.33-1.19,4.73-2.05,7C129.46,245.35,127,251.43,124.56,257.53Z" transform="translate(-15.73 -17.42)"/><path class="cls-3" d="M76.07,245.3a64.47,64.47,0,0,1-5.3-4.29c-9-8.94-17.94-18-26.9-27,1.31-1,2.48-2.39,4-3.08,6.67-3.12,13.43-6.05,20.15-9,2.5,0,4.63-3.25,7.58-.06,7,7.53,14.34,14.7,21.55,22L96,226.05l0,0-1,1,0,0-1,1,0,0-1,1,0,0-1,1,0,0-1,1,0,0-1,1,0,0-1,1,0,0-1,1,0,0-1,1,0,0-1,1,0,0-1,1,0,0-1,1,0,0-1,1,0,0-1,1,0,0-1,1,0,0-3,3,0,0-1.11.84.06.27A.94.94,0,0,0,76.07,245.3Z" transform="translate(-15.73 -17.42)"/><path class="cls-2" d="M33.26,81.08c5.25,5.17,10.46,10.38,15.79,15.47a27.63,27.63,0,0,0,4.27,2.81c4.19,4,2.73,8.08.65,12.58-3.32,7.19-6.11,14.61-9.12,21.93-1.64,0-3.45.46-4.9-.07-7-2.55-13.8-5.36-20.69-8.09l-3.53-2.39Q24.52,102.13,33.26,81.08Z" transform="translate(-15.73 -17.42)"/><path class="cls-4" d="M254.05,106.92c3-.3,4,1,4,4-.2,14.09-.16,28.19-.21,42.28L232.13,143c-4.34-1-5.38-3.77-5.23-8.07.34-9.3.09-18.63.08-27.94Z" transform="translate(-15.73 -17.42)"/><path class="cls-5" d="M232.13,143l25.67,10.18c3.13,1.18,2.37,3.16,1.37,5.52-5.18,12.36-10.23,24.78-15.32,37.18-1.33-.59-2.93-.89-3.94-1.83C234.2,188.81,228.64,183.37,223,178c-3.31-2.46-3.43-5.21-1.73-9C225.18,160.49,228.55,151.72,232.13,143Z" transform="translate(-15.73 -17.42)"/><path class="cls-6" d="M68,201.92c-6.72,3-13.48,5.92-20.15,9-1.48.69-2.65,2-4,3.08-3.38-.27-5.25-2-6.53-5.28-5-12.56-10.28-25-15.46-37.51L49.1,171c4.53-.86,6.67,1.25,8.25,5.45C60.57,185.06,64.4,193.44,68,201.92Z" transform="translate(-15.73 -17.42)"/><path class="cls-7" d="M197.08,35l4.7-2.25L233,65c-1.84,1-3.62,2.1-5.52,3-6.51,3-13.06,5.88-19.59,8.81L202,78,178.9,54.67a50.48,50.48,0,0,1,3.29-4.24C187.11,45.25,192.11,40.15,197.08,35Z" transform="translate(-15.73 -17.42)"/><path class="cls-8" d="M124.56,257.53c2.42-6.1,4.9-12.18,7.23-18.32.86-2.26,1.38-4.66,2.05-7,1.94-4.73,5.66-5.43,10.33-5.25,8.6.33,17.22.1,25.83.11,0,5.11-.09,10.23.08,15.34.12,3.87.6,7.73.92,11.6-.14,2,.11,4.06-3,4C153.51,257.8,139,257.68,124.56,257.53Z" transform="translate(-15.73 -17.42)"/><path class="cls-2" d="M197.08,35c-5,5.12-10,10.22-14.89,15.4a50.48,50.48,0,0,0-3.29,4.24c-2.85,4-6.05,3.67-10.26,1.79-8-3.58-16.31-6.46-24.5-9.64a31.41,31.41,0,0,1,1-5.16c2.58-6.87,5.32-13.69,8-20.54.74-1.06,1.47-2.13,2.55-3.7Z" transform="translate(-15.73 -17.42)"/><path class="cls-6" d="M207.85,76.81c6.53-2.93,13.08-5.83,19.59-8.81,1.9-.87,3.68-2,5.52-3,3.13-.66,4.43,1.24,5.46,3.76,5.18,12.72,10.42,25.42,15.63,38.13L227,107c-4.74.92-6.58-1.6-8.2-5.74C215.53,93,211.54,85,207.85,76.81Z" transform="translate(-15.73 -17.42)"/><path class="cls-9" d="M49.1,171l-27.22.25c-1-1-2.79-2-2.8-3-.08-14.18.08-28.36.18-42.54C26.15,128.44,33,131.25,40,133.8c1.45.53,3.26.07,4.9.07,3.87,3.3,4.51,7.51,4.3,12.42C48.78,154.51,49.08,162.76,49.1,171Z" transform="translate(-15.73 -17.42)"/><path class="cls-9" d="M153.16,21.12c-2.68,6.85-5.42,13.67-8,20.54a31.41,31.41,0,0,0-1,5.16L140,51.2l-32-.1-.25-27.24c1.17-1,2.34-2.83,3.52-2.84C125.23,20.9,139.2,21.05,153.16,21.12Z" transform="translate(-15.73 -17.42)"/><path class="cls-10" d="M107.75,23.86q.12,13.62.25,27.24c.6,4-.64,7.19-4.9,7.52-1.93.15-4-1.7-6-2.64-2.14-2.61-4.15-5.34-6.44-7.81C86.52,43.74,82.23,39.46,78,35.11c7.34-2.71,14.68-5.4,22-8.14C102.61,26,105.17,24.9,107.75,23.86Z" transform="translate(-15.73 -17.42)"/><path class="cls-10" d="M171,254c-.32-3.87-.8-7.73-.92-11.6-.17-5.11-.07-10.23-.08-15.35.79-2.08,1.15-5.5,2.47-5.92,1.8-.57,4.32,1.15,6.53,1.89q9.52,9.93,19,19.88Z" transform="translate(-15.73 -17.42)"/><path class="cls-11" d="M78,244.05l3-3v2.89Z" transform="translate(-15.73 -17.42)"/><path class="cls-11" d="M76.93,244.86,78,244Z" transform="translate(-15.73 -17.42)"/><path class="cls-12" d="M76.07,245.3a.94.94,0,0,1,.92-.17Z" transform="translate(-15.73 -17.42)"/><path class="cls-13" d="M179,223c-2.21-.74-4.73-2.46-6.53-1.89-1.32.42-1.68,3.84-2.47,5.92-8.61,0-17.23.23-25.83-.1-4.67-.18-8.39.52-10.33,5.25-9.21-3.78-18.43-7.54-27.62-11.36-.66-.28-1.12-1.05-1.68-1.59.18-.74.37-1.48.55-2.21h0l1-1,0,0,1-1,0,0,3.17-.37,26.95,10.95c1.1-2.17,2-3.91,2.87-5.64,8.73,0,17.46-.14,26.2,0,3,.06,4.4-.76,3.92-3.87,2.9,1.08,5,.41,7.29-1.95,11.82-12.14,23.83-24.1,35.86-36,1.63-1.61,3.81-2.66,5.76-4l-5.17-6.33,11.52-27.56L219,137v-29.8l-5.93-.31L202,80c0-.68,0-1.36,0-2l5.84-1.14c3.69,8.14,7.68,16.16,10.94,24.47,1.62,4.14,3.46,6.66,8.2,5.74,0,9.31.25,18.64-.09,27.94-.15,4.3.89,7.06,5.23,8.07-3.58,8.69-6.95,17.46-10.83,26-1.7,3.74-1.58,6.49,1.73,9a9.51,9.51,0,0,1-1.32,2.58Q200.4,201.84,179,223Z" transform="translate(-15.73 -17.42)"/><path class="cls-13" d="M97.08,56c2,.94,4.09,2.79,6,2.64,4.26-.33,5.5-3.54,4.9-7.52l32,.1c0,.65,0,1.3.07,2l-2.89,6H108.08c-.08,1.73-.15,3.19-.22,4.66l-4.23-2.15L59,106l3.11,5.09c-3.7,9.06-7.4,18.12-11.08,27.1l6.31,3.58v29.09L64,172c2.76,6.9,5.82,13.7,8.18,20.73,1.63,4.87,3.74,7.52,9.09,5.09l21.2,21.44-3.13,4.16-2.22.49c-7.21-7.32-14.58-14.49-21.55-22-3-3.19-5.08,0-7.58.06-3.58-8.48-7.41-16.86-10.63-25.47-1.58-4.2-3.72-6.31-8.25-5.45,0-8.24-.32-16.49,0-24.71.21-4.91-.43-9.12-4.3-12.42,3-7.32,5.8-14.74,9.12-21.93,2.08-4.5,3.54-8.58-.65-12.58Z" transform="translate(-15.73 -17.42)"/><path class="cls-3" d="M102.46,219.23l-21.2-21.44c1.73-.93,3.43-1.93,5.21-2.77,5.5-2.62,11-5.18,16.56-7.76,7.26-4.93,11.93-.83,16.3,4.6,1.44,1.8,3.16,3.37,4.75,5l-1,2.17,0,0-1,1,0,0-1,1,0,0-1,1,0,0-1,1,0,0-1,1,0,0-1,1,0,0-1,1,0,0-1,1,0,0-1,1,0,0-1,1,0,0-1,1,0,0-1,1,0,0-1,1,0,0-3,3.06,0,0-1,1,0,0-1,1h0l-1.11.87-1.49,1.14Z" transform="translate(-15.73 -17.42)"/><path class="cls-11" d="M97.11,223.88l2.22-.49L96,226.05Z" transform="translate(-15.73 -17.42)"/><path class="cls-14" d="M104,217.93l1.11-.87c-.18.73-.37,1.47-.55,2.21l-.05-.18Z" transform="translate(-15.73 -17.42)"/><path class="cls-13" d="M104,217.93l.51,1.16-2,0Z" transform="translate(-15.73 -17.42)"/><path class="cls-11" d="M95,227.05l1-1Z" transform="translate(-15.73 -17.42)"/><path class="cls-11" d="M94,228.05l1-1Z" transform="translate(-15.73 -17.42)"/><path class="cls-11" d="M93,229.05l1-1Z" transform="translate(-15.73 -17.42)"/><path class="cls-11" d="M92,230.05l1-1Z" transform="translate(-15.73 -17.42)"/><path class="cls-11" d="M91,231.05l1-1Z" transform="translate(-15.73 -17.42)"/><path class="cls-11" d="M90,232.05l1-1Z" transform="translate(-15.73 -17.42)"/><path class="cls-11" d="M89,233.05l1-1Z" transform="translate(-15.73 -17.42)"/><path class="cls-11" d="M88,234.05l1-1Z" transform="translate(-15.73 -17.42)"/><path class="cls-11" d="M87,235.05l1-1Z" transform="translate(-15.73 -17.42)"/><path class="cls-11" d="M86,236.05l1-1Z" transform="translate(-15.73 -17.42)"/><path class="cls-11" d="M85,237.05l1-1Z" transform="translate(-15.73 -17.42)"/><path class="cls-11" d="M84,238.05l1-1Z" transform="translate(-15.73 -17.42)"/><path class="cls-11" d="M83,239.05l1-1Z" transform="translate(-15.73 -17.42)"/><path class="cls-11" d="M82,240.05l1-1Z" transform="translate(-15.73 -17.42)"/><path class="cls-11" d="M81,241.05l1-1Z" transform="translate(-15.73 -17.42)"/><path class="cls-15" d="M140.06,53.16c0-.66,0-1.31-.07-2l4.15-4.38c8.19,3.18,16.5,6.06,24.5,9.64,4.21,1.88,7.41,2.17,10.26-1.79L202,78c0,.68,0,1.36,0,2l-7.81.91L174.4,59.75,168,64.12Z" transform="translate(-15.73 -17.42)"/><path class="cls-11" d="M213.9,167.88l5.17,6.33c-1.95,1.33-4.13,2.38-5.76,4-12,11.92-24,23.88-35.86,36-2.29,2.36-4.39,3-7.29,1.95L152,196.08c.86-1,1.65-2.08,2.59-3,12.69-12.48,25.43-24.92,38.08-37.44a35.51,35.51,0,0,0,3.45-4.72Z" transform="translate(-15.73 -17.42)"/><path class="cls-16" d="M140,220c-.89,1.73-1.77,3.47-2.87,5.64l-26.95-10.95-.15-2.69,0,0,1-1,0,0,1-1,0,0,1-1,0,0,1-1,0,0,1-1,0,0,1-1,0,0,1-1,0,0,1-1,0,0,1-1,0,0,1-1,0,0,1-1,0,0,1-1,0,0,1-1,0,0L126,197a13.64,13.64,0,0,0,2.17-2c2.69-3.78,5.75-4.45,9.91-2.08,3.09,1.77,6.61,2.8,9.93,4.16-.3,1.89-.29,3.9-1,5.65C144.82,208.54,142.38,214.27,140,220Z" transform="translate(-15.73 -17.42)"/><path class="cls-17" d="M213.9,167.88l-17.78-17c-5.68-3.93-5.7-8.67-2.37-14.22,1.43-2.36,2.15-5.15,3.2-7.74a45.81,45.81,0,0,1,5.62,1.44c5.5,2.13,10.94,4.42,16.4,6.65l6.45,3.28Z" transform="translate(-15.73 -17.42)"/><path class="cls-18" d="M194.19,80.9,202,80l11,26.94L189,107c-9.84-.25-8.49,2-12.45-7.86-1.1-2.73-2.34-5.39-3.51-8.08a21.33,21.33,0,0,1,2-1.24Q184.6,85.35,194.19,80.9Z" transform="translate(-15.73 -17.42)"/><path class="cls-19" d="M189,107l24.09-.09,5.93.31V137c-5.46-2.23-10.9-4.52-16.4-6.65A45.81,45.81,0,0,0,197,129c-7.22-1.84-9-6.78-8-13.57C189.33,112.65,189,109.81,189,107Z" transform="translate(-15.73 -17.42)"/><path class="cls-19" d="M140,220c2.34-5.76,4.78-11.49,7-17.31.67-1.75.66-3.76,1-5.65l4-1,18.16,20.09c.48,3.11-1,3.93-3.92,3.87C157.5,219.89,148.77,220,140,220Z" transform="translate(-15.73 -17.42)"/><path class="cls-14" d="M110.07,212l.15,2.69-3.17.37Z" transform="translate(-15.73 -17.42)"/><path class="cls-14" d="M106.05,216.07l1-1Z" transform="translate(-15.73 -17.42)"/><path class="cls-14" d="M105.05,217.07l1-1Z" transform="translate(-15.73 -17.42)"/><path class="cls-20" d="M62.08,111.05,59,106l44.66-44.29,4.23,2.15a52.62,52.62,0,0,0,3.61,5.1c4.12,4.62,8.37,9.12,12.56,13.67l-1.74,1.76L79.93,127.06c-3-2.84-5.91-5.74-9-8.5C68.07,116,65,113.55,62.08,111.05Z" transform="translate(-15.73 -17.42)"/><path class="cls-21" d="M103,187.26C97.51,189.84,92,192.4,86.47,195c-1.78.84-3.48,1.84-5.21,2.77-5.35,2.43-7.46-.22-9.09-5.09-2.36-7-5.42-13.83-8.18-20.73a28.08,28.08,0,0,1,4.66-.87c6.23-.13,12.47-.1,18.7-.13,9.36.21,9.36.21,12.76,8.94C101.07,182.37,102.06,184.81,103,187.26Z" transform="translate(-15.73 -17.42)"/><path class="cls-17" d="M62.08,111.05c3,2.5,6,4.93,8.88,7.51,3.06,2.76,6,5.66,9,8.5a14.72,14.72,0,0,0,2.34,2.56c3.49,2.41,3.63,5.17,1.77,8.81s-3.1,7.68-4.62,11.54l-22.11-8.24L51,138.15C54.68,129.17,58.38,120.11,62.08,111.05Z" transform="translate(-15.73 -17.42)"/><path class="cls-17" d="M140.06,53.16l27.9,11c-1.39,1.58-2.77,3.18-4.19,4.74q-5.93,6.45-11.88,12.88c-4.19,6-9.21,6.2-15.13,2.51-2.34-1.46-5.16-2.15-7.76-3.19l8.17-21.9Z" transform="translate(-15.73 -17.42)"/><path class="cls-19" d="M57.31,141.73,79.42,150c7.77,3.14,7.75,3.14,7.78,11.57,0,3.15.1,6.29.16,9.43-6.24,0-12.48,0-18.71.13A28.08,28.08,0,0,0,64,172l-6.68-1.15Z" transform="translate(-15.73 -17.42)"/><path class="cls-19" d="M137.17,59.16,129,81.06,127.4,84,124,82.59c-4.19-4.55-8.44-9-12.56-13.67a52.62,52.62,0,0,1-3.61-5.1c.07-1.47.14-2.93.22-4.66Z" transform="translate(-15.73 -17.42)"/><path class="cls-12" d="M124,82.59,127.4,84l1.6-2.89c2.6,1,5.42,1.73,7.76,3.19,5.92,3.69,10.94,3.48,15.13-2.51,2.26,2.12,4.9,4,6.7,6.41,4,5.51,8.63,6.7,14.4,2.93,1.17,2.69,2.41,5.35,3.51,8.08,4,9.86,2.61,7.61,12.45,7.86,0,2.79.38,5.63,0,8.36-1,6.79.79,11.73,8,13.57-1,2.59-1.77,5.38-3.2,7.74-3.33,5.55-3.31,10.29,2.37,14.22a35.51,35.51,0,0,1-3.45,4.72c-12.65,12.52-25.39,25-38.08,37.44-.94.93-1.73,2-2.59,3l-4,1c-3.32-1.36-6.84-2.39-9.93-4.16-4.16-2.37-7.22-1.7-9.91,2.08a13.64,13.64,0,0,1-2.17,2l-1.88-.06c-1.59-1.67-3.31-3.24-4.75-5-4.37-5.43-9-9.53-16.3-4.6-1-2.45-2-4.89-2.92-7.35-3.4-8.73-3.4-8.73-12.76-8.94,0-3.14-.15-6.28-.15-9.43,0-8.43,0-8.43-7.78-11.57,1.52-3.86,2.75-7.86,4.62-11.54s1.72-6.4-1.77-8.81a14.72,14.72,0,0,1-2.34-2.56l42.36-42.71ZM140.27,133,138,133c-1.3,1.93-3.45,3.74-3.71,5.79-.4,3.18,1.89,5.21,5.23,5.14s5.39-2.45,4.84-5.49C144,136.45,141.7,134.78,140.27,133Z" transform="translate(-15.73 -17.42)"/><path class="cls-14" d="M124.08,196.9,126,197,123,199.07Z" transform="translate(-15.73 -17.42)"/><path class="cls-14" d="M116.06,206l-1,1Z" transform="translate(-15.73 -17.42)"/><path class="cls-14" d="M115.06,207l-1,1Z" transform="translate(-15.73 -17.42)"/><path class="cls-14" d="M114.06,208l-1,1Z" transform="translate(-15.73 -17.42)"/><path class="cls-14" d="M113.06,209l-1,1Z" transform="translate(-15.73 -17.42)"/><path class="cls-14" d="M123.06,199l-1,1Z" transform="translate(-15.73 -17.42)"/><path class="cls-14" d="M112.06,210l-1,1Z" transform="translate(-15.73 -17.42)"/><path class="cls-14" d="M111.06,211l-1,1Z" transform="translate(-15.73 -17.42)"/><path class="cls-14" d="M117.06,205l-1,1Z" transform="translate(-15.73 -17.42)"/><path class="cls-14" d="M118.06,204l-1,1Z" transform="translate(-15.73 -17.42)"/><path class="cls-14" d="M119.06,203l-1,1Z" transform="translate(-15.73 -17.42)"/><path class="cls-14" d="M120.06,202l-1,1Z" transform="translate(-15.73 -17.42)"/><path class="cls-14" d="M122.06,200l-1,1Z" transform="translate(-15.73 -17.42)"/><path class="cls-14" d="M121.06,201l-1,1Z" transform="translate(-15.73 -17.42)"/><path class="cls-22" d="M173,91.08c-5.77,3.77-10.35,2.58-14.4-2.93-1.8-2.45-4.44-4.29-6.7-6.41q5.94-6.43,11.88-12.88c1.42-1.56,2.8-3.16,4.19-4.74l6.44-4.37L194.19,80.9q-9.58,4.47-19.16,8.94A21.33,21.33,0,0,0,173,91.08Z" transform="translate(-15.73 -17.42)"/><path class="cls-23" d="M140.27,133c1.43,1.83,3.71,3.5,4.08,5.52.55,3-1.4,5.42-4.84,5.49s-5.63-2-5.23-5.14c.26-2,2.41-3.86,3.71-5.79Z" transform="translate(-15.73 -17.42)"/></svg>