<?xml version="1.0" encoding="UTF-8"?> <!-- Generator: Adobe Illustrator 21.0.0, SVG Export Plug-In . SVG Version: 6.00 Build 0) --> <svg xmlns="http://www.w3.org/2000/svg" xmlns:xlink="http://www.w3.org/1999/xlink" version="1.1" id="Layer_1" x="0px" y="0px" viewBox="0 0 130.5 130.5" style="enable-background:new 0 0 130.5 130.5;" xml:space="preserve"> <style type="text/css"> .st0{fill:#686867;} .st1{clip-path:url(#SVGID_2_);} .st2{fill:#676766;} .st3{opacity:0.2;fill:#5C5D5D;} .st4{fill:#D0EBE7;} </style> <path class="st0" d="M125.3,130.5H5.2c-2.9,0-5.2-2.3-5.2-5.2V5.2C0,2.3,2.3,0,5.2,0h120.1c2.9,0,5.2,2.3,5.2,5.2v120.1 C130.5,128.2,128.2,130.5,125.3,130.5z"></path> <g> <defs> <path id="SVGID_1_" d="M26.2,130.4C11.8,130.4,0,118.6,0,104.2v-78C0,11.8,11.8,0,26.2,0h78c14.5,0,26.2,11.8,26.2,26.2v78 c0,7,2,19.8-1.2,24.5c-3.9,4.3-17.6,1.8-25,1.8H26.2z"></path> </defs> <clipPath id="SVGID_2_"> <use xlink:href="#SVGID_1_" style="overflow:visible;"></use> </clipPath> <g class="st1"> <path class="st2" d="M26.2,130.4C11.8,130.4,0,118.6,0,104.2v-78C0,11.8,11.8,0,26.2,0h78c14.5,0,26.2,11.8,26.2,26.2v78 c0,14.5-11.8,26.2-26.2,26.2H26.2z"></path> <polygon class="st3" points="142.2,107.1 142.2,104.5 141.5,104 141.5,103.8 140.8,103.3 140.8,103.1 140.1,102.6 140.1,102.4 139.4,101.9 139.4,101.7 138.7,101.2 138.7,101 138,100.5 138,100.3 137.3,99.8 137.3,99.6 136.6,99.1 136.6,98.9 135.9,98.4 135.9,98.2 135.3,97.7 135.3,97.5 134.6,97 134.6,96.8 133.9,96.3 133.9,96.1 133.2,95.6 133.2,95.4 132.5,94.9 132.5,94.7 131.8,94.2 131.8,94 131.1,93.5 131.1,93.3 130.5,92.9 130.5,91.2 75.7,37.9 66.9,37.9 66.9,46.5 66.9,47.4 65.3,46.5 45.4,46.5 21.8,62.5 21.8,68.1 21.8,68.1 24.8,72.2 24.8,95.8 58.5,130.4 59.7,130.4 59.7,130.7 60.4,130.7 60.4,131.4 75.9,131.4 75.9,130.4 85.5,130.4 85.5,130.7 86.2,130.7 86.2,131.4 101.7,131.4 101.7,130.4 104.5,130.4 104.5,130.7 105.2,130.7 105.2,131.4 142.2,131.4 142.2,108.8 141.5,108.8 141.5,108.1 140.8,108.1 140.8,107.4 140.1,107.4 140.1,107.1 "></polygon> <g> <polygon class="st4" points="45.4,55 24.8,69.1 24.8,95.8 40.3,95.8 40.3,75.4 50.6,75.4 50.6,95.8 66.1,95.8 66.1,69.1 "></polygon> <path class="st4" d="M69.5,73.2v22.5h37.1V73.2H69.5z M85.2,88.4h-9.1v-7.9h9.1V88.4z M100,88.4h-9.1v-7.9h9.1V88.4z"></path> <g> <polygon class="st4" points="77.3,47.8 77.3,54.4 65.3,54.4 65.3,46.5 45.4,46.5 21.8,62.5 21.8,68.1 45.4,52.2 69.5,68.9 69.5,71.5 106.6,71.5 106.6,68.9 "></polygon> <polygon class="st4" points="66.9,37.9 66.9,46.5 66.9,52.8 75.7,52.8 75.7,46.6 75.7,37.9 "></polygon> </g> </g> </g> </g> </svg> 